<?xml version="1.0" encoding="UTF-8" standalone="no"?>
<!-- Created with Inkscape (http://www.inkscape.org/) -->

<svg
   width="352.05399mm"
   height="250.08484mm"
   viewBox="0 0 352.05399 250.08484"
   version="1.1"
   id="svg5"
   xml:space="preserve"
   inkscape:version="1.2.1 (9c6d41e, 2022-07-14)"
   sodipodi:docname="logo.svg"
   xmlns:inkscape="http://www.inkscape.org/namespaces/inkscape"
   xmlns:sodipodi="http://sodipodi.sourceforge.net/DTD/sodipodi-0.dtd"
   xmlns="http://www.w3.org/2000/svg"
   xmlns:svg="http://www.w3.org/2000/svg"><sodipodi:namedview
     id="namedview7"
     pagecolor="#ffffff"
     bordercolor="#000000"
     borderopacity="0.25"
     inkscape:showpageshadow="2"
     inkscape:pageopacity="0.0"
     inkscape:pagecheckerboard="0"
     inkscape:deskcolor="#d1d1d1"
     inkscape:document-units="mm"
     showgrid="false"
     inkscape:zoom="0.28216627"
     inkscape:cx="946.25058"
     inkscape:cy="437.6852"
     inkscape:window-width="1800"
     inkscape:window-height="1097"
     inkscape:window-x="0"
     inkscape:window-y="44"
     inkscape:window-maximized="0"
     inkscape:current-layer="g188" /><defs
     id="defs2" /><g
     inkscape:label="Layer 1"
     inkscape:groupmode="layer"
     id="layer1"
     transform="translate(14.022456,-46.915151)"><g
       inkscape:label="Image"
       id="g188"
       transform="matrix(0.26458333,0,0,0.26458333,-40.916425,0.41697069)"><path
         style="fill:#000000;stroke-width:1.33333"
         d="m 414.50068,1120.0442 c -0.4889,-0.4889 -0.8889,-2.5889 -0.8889,-4.6667 0,-3.1666 0.5535,-3.7778 3.421,-3.7778 4.2353,0 8.5807,-2.22 8.5739,-4.3802 0,-0.8909 -3.3027,-10.0049 -7.3333,-20.2535 -4.0306,-10.2485 -7.3283,-18.8284 -7.3283,-19.0665 0,-0.2381 3.4286,-0.2529 7.619,-0.033 l 7.6191,0.3999 3.3809,11.5896 c 1.8596,6.3744 3.7164,11.9098 4.1264,12.301 0.4099,0.3912 2.116,-4.9742 3.7912,-11.923 l 3.0458,-12.6343 h 7.1512 7.1513 l -4.4798,12.3333 c -12.0274,33.1133 -13.4246,35.9074 -19.5369,39.0682 -3.7993,1.9647 -14.6943,2.6613 -16.3126,1.0429 z m 186.0744,-1.1867 c -3.8264,-2.6802 -4.0242,-9.8844 -0.3624,-13.1983 2.3897,-2.1626 2.4349,-2.6074 0.5561,-5.4747 -2.4153,-3.6863 -1.4198,-7.9935 2.3087,-9.989 2.5949,-1.3887 2.594,-1.4325 -0.09,-4.845 -7.2543,-9.2224 0.4115,-17.7508 15.9553,-17.7508 6.9592,0 8.5747,-0.48 11.2191,-3.3333 2.3356,-2.5202 4.4344,-3.3333 8.603,-3.3333 6.5718,0 6.89,1.4956 1.4711,6.9144 -3.0783,3.0783 -3.6939,4.463 -2.5806,5.8044 0.8041,0.969 1.2733,3.994 1.0427,6.7223 -0.5838,6.9058 -5.5326,10.3611 -16.0773,11.2255 -4.8057,0.394 -8.3573,1.3485 -8.6818,2.3334 -0.4049,1.2286 1.9443,1.6666 8.9381,1.6666 5.2763,0 11.5433,0.8591 14.1196,1.9355 8.3922,3.5065 9.2811,13.69 1.7483,20.0285 -3.7833,3.1835 -4.8649,3.3694 -19.6053,3.3694 -11.9622,0 -16.2922,-0.4842 -18.5643,-2.0756 z m 28.37,-9.2578 c 0,-2.3192 -1.0241,-2.7195 -7.861,-3.0723 -8.2833,-0.4275 -11.0333,0.8186 -9.6666,4.3801 0.6633,1.7287 2.4744,2.0753 9.177,1.7563 7.3292,-0.3488 8.3506,-0.7236 8.3506,-3.0641 z m -3.6023,-29.45 c 0.5391,-3.7733 -2.9016,-6.3806 -7.047,-5.3401 -2.3712,0.5951 -3.3507,1.7429 -3.3507,3.9266 0,4.1596 1.1692,5.0619 5.9521,4.5934 2.9274,-0.2868 4.158,-1.167 4.4456,-3.1799 z m 392.60232,38.7789 c -3.8596,-2.7619 -4.0756,-9.9422 -0.3991,-13.2694 2.3897,-2.1626 2.4349,-2.6074 0.5561,-5.4747 -2.4153,-3.6863 -1.4198,-7.9935 2.3088,-9.989 2.5948,-1.3887 2.594,-1.4325 -0.09,-4.845 -7.2068,-9.1619 0.4148,-17.7508 15.7516,-17.7508 6.708,0 8.4089,-0.5088 11.0662,-3.3103 2.3733,-2.502 4.5236,-3.3159 8.8067,-3.3333 6.7334,-0.027 7.0784,1.4369 1.6239,6.8914 -3.0782,3.0783 -3.6939,4.463 -2.5806,5.8044 0.8041,0.969 1.2733,3.994 1.0427,6.7223 -0.576,6.8132 -5.2207,10.0537 -15.8915,11.087 -12.1822,1.1798 -12.1318,4.1385 0.071,4.1385 12.3905,0 17.9791,2.3364 19.9623,8.3456 1.7659,5.3507 0.5397,9.6694 -3.8767,13.6544 -2.5504,2.3012 -5.1752,2.7221 -19.1531,3.0712 -13.2187,0.33 -16.7493,0.01 -19.1976,-1.7423 z m 28.3333,-9.3289 c 0,-2.3192 -1.0241,-2.7195 -7.861,-3.0723 -8.2833,-0.4275 -11.0333,0.8186 -9.6666,4.3801 0.6633,1.7287 2.4745,2.0753 9.177,1.7563 7.3293,-0.3488 8.3506,-0.7236 8.3506,-3.0641 z m -3.6023,-29.45 c 0.5391,-3.7733 -2.9015,-6.3806 -7.047,-5.3401 -2.3712,0.5951 -3.3507,1.7429 -3.3507,3.9266 0,4.1596 1.1693,5.0619 5.9521,4.5934 2.9274,-0.2868 4.158,-1.167 4.4456,-3.1799 z m -672.51072,24.2215 c -8.6229,-3.7544 -13.3083,-13.8669 -12.1816,-26.2917 0.9203,-10.1499 4.2608,-15.7559 11.6077,-19.4798 15.6512,-7.9331 37.3295,0.5798 37.3486,14.6667 0.01,3.5387 -0.2393,3.6656 -6.995,3.6378 -6.5747,-0.027 -7.1215,-0.2904 -9,-4.3333 -3.0922,-6.6552 -12.7872,-6.8235 -15.7714,-0.2737 -1.9035,4.1777 -2.0265,12.5737 -0.2525,17.2396 2.6988,7.0985 13.8904,7.4632 16.5044,0.5378 1.3311,-3.5265 1.9583,-3.8082 8.4785,-3.8082 6.2627,0 7.041,0.3093 7.041,2.7985 0,5.1326 -4.0405,11.3999 -9.2298,14.3164 -6.0403,3.3948 -20.8078,3.9254 -27.5499,0.9899 z m 94.3661,-0.8057 c -11.4183,-6.9615 -10.7515,-27.7197 1.0803,-33.6304 6.0375,-3.0161 18.7161,-3.0697 24.9625,-0.1056 4.2479,2.0158 8.3708,8.1203 8.3708,12.3941 0,0.7582 -2.9249,1.3762 -6.5133,1.3762 -5.4762,0 -6.8611,-0.5308 -8.6974,-3.3334 -2.3797,-3.6319 -8.3638,-4.5589 -11.1893,-1.7333 -2.076,2.076 -2.076,14.724 0,16.8 0.88,0.88 3.5929,1.6 6.0286,1.6 3.4299,0 4.7711,-0.7517 5.9473,-3.3333 1.3155,-2.8872 2.3825,-3.3334 7.9715,-3.3334 7.0088,0 7.3694,0.5581 4.6166,7.1464 -2.4797,5.9349 -8.9803,8.855 -19.6988,8.8486 -6.1371,0 -9.679,-0.745 -12.8788,-2.6958 z m 41.0803,-23.2991 v -26 h 6.6666 6.6667 v 26 26 h -6.6667 -6.6666 z m 24,6.6667 v -19.3334 h 6.6666 6.6667 v 19.3334 19.3333 h -6.6667 -6.6666 z m 22.6666,0 v -19.3334 h 5.8445 c 4.8346,0 5.9723,0.4888 6.5841,2.8284 l 0.7397,2.8284 3.5957,-2.8284 c 3.5792,-2.8154 12.3808,-3.8403 17.1763,-2.0001 4.4573,1.7104 6.0597,7.8202 6.0597,23.1055 v 14.7329 h -7.3333 -7.3333 V 1092.98 c 0,-11.5508 -0.3215,-13.4585 -2.4606,-14.6033 -1.771,-0.9478 -3.2655,-0.753 -5.3333,0.6954 -2.5967,1.8187 -2.8728,3.2225 -2.8728,14.6032 v 12.5911 h -7.3333 -7.3334 z m 126.6667,16.6666 c -2.2716,-2.2716 -2.6667,-4.4444 -2.6667,-14.6666 0,-11.1112 -0.1975,-12 -2.6666,-12 -2.1588,0 -2.6667,-0.8889 -2.6667,-4.6667 0,-4.0374 0.4316,-4.6667 3.2009,-4.6667 2.6009,0 3.4212,-0.9372 4.3764,-5 1.1057,-4.7032 1.5093,-5.0243 6.7991,-5.41 l 5.6236,-0.41 v 5.41 c 0,5.1222 0.2128,5.41 4,5.41 3.6825,0 4,0.3704 4,4.6667 0,4.3112 -0.3091,4.6667 -4.0584,4.6667 h -4.0584 l 0.3917,9.6666 c 0.3827,9.4433 0.4765,9.6764 4.0584,10.0886 3.2062,0.3689 3.6667,0.9969 3.6667,5 v 4.5781 h -8.6667 c -6.8889,0 -9.2136,-0.547 -11.3333,-2.6667 z m 33.2166,-0.3733 c -5.8509,-3.9429 -7.844,-8.0829 -7.844,-16.2933 0,-8.2105 1.9931,-12.3504 7.844,-16.2934 6.117,-4.1222 20.0335,-4.3001 26.5303,-0.3391 4.6104,2.8109 8.2531,9.5246 8.2531,15.2112 0,3.3225 -0.037,3.332 -14.3333,3.7095 -13.4839,0.356 -14.3081,0.5365 -13.9078,3.0451 0.9431,5.9102 7.7977,7.7767 12.2411,3.3333 1.9556,-1.9555 4.4444,-2.6666 9.3333,-2.6666 3.6667,0 6.6667,0.2609 6.6667,0.5798 0,2.9773 -3.4111,7.9133 -6.9668,10.0812 -6.5126,3.9708 -21.6761,3.7703 -27.8166,-0.3677 z m 20.1167,-22.2626 c 0,-0.7164 -1.419,-2.2324 -3.1533,-3.3688 -3.6991,-2.4237 -10.18,-0.744 -10.18,2.6384 0,1.5507 1.5815,2.033 6.6667,2.033 3.6666,0 6.6666,-0.5862 6.6666,-1.3026 z m 28.3981,22.6899 c -11.6951,-7.1309 -11.203,-27.777 0.8101,-33.9892 5.0136,-2.5927 19.0085,-2.7107 23.8612,-0.2013 4.8349,2.5003 7.8648,6.0362 8.9713,10.4699 0.913,3.6584 0.8991,3.6666 -6.2466,3.6666 -6.1481,0 -7.348,-0.4246 -8.4779,-3 -1.5087,-3.4389 -7.7332,-4.7536 -10.7301,-2.2664 -2.3745,1.9706 -2.6137,14.7054 -0.3194,16.9998 0.88,0.88 3.5929,1.6 6.0286,1.6 3.4299,0 4.771,-0.7517 5.9473,-3.3334 1.3155,-2.8871 2.3825,-3.3333 7.9715,-3.3333 3.7999,0 6.4526,0.6023 6.4526,1.4651 0,3.872 -4.6242,10.5273 -8.6379,12.4319 -6.4318,3.0521 -20.2395,2.7775 -25.6307,-0.5097 z m 40.4908,1.7238 c -0.4889,-0.4889 -0.8889,-12.1889 -0.8889,-26 v -25.1111 h 7.3334 7.3333 v 8.7009 8.7009 l 3.9338,-2.0342 c 4.0386,-2.0885 11.5095,-2.6759 15.3398,-1.206 4.4634,1.7127 6.0597,7.8179 6.0597,23.1752 v 14.8025 l -7,-0.403 -7,-0.403 -0.6666,-13.3333 c -0.6339,-12.6777 -0.8179,-13.3548 -3.7401,-13.769 -5.7651,-0.8173 -6.9266,1.7426 -6.9266,15.2656 v 12.5034 h -6.4444 c -3.5445,0 -6.8445,-0.4 -7.3334,-0.8889 z m 48.4445,-18.4444 v -19.3334 h 5.4581 c 4.2671,0 5.6047,0.5605 6.1298,2.5682 0.6627,2.5342 0.7272,2.5342 4.8751,0 6.1399,-3.7439 14.8078,-3.4236 18.9309,0.6996 3.1125,3.1125 3.2727,4.0591 3.2727,19.3333 v 16.0603 h -6.6666 -6.6667 v -11.8907 c 0,-14.5234 -0.5344,-16.109 -5.4291,-16.109 -5.314,0 -6.5709,3.1712 -6.5709,16.579 v 11.421 h -6.6667 -6.6666 z m 54.5499,16.2933 c -5.8509,-3.9429 -7.844,-8.0829 -7.844,-16.2933 0,-12.776 6.8818,-19.3334 20.2897,-19.3334 15.0393,0 21.6017,5.8733 21.6017,19.3334 0,13.46 -6.5624,19.3333 -21.6017,19.3333 -6.0515,0 -9.0052,-0.7215 -12.4457,-3.04 z m 18.5167,-7.8933 c 1.9627,-1.9627 2.1062,-12.2962 0.2198,-15.821 -1.9511,-3.6457 -8.5465,-3.4196 -11.2108,0.3843 -4.6217,6.5984 -1.109,17.0367 5.7333,17.0367 2.0118,0 4.3777,-0.72 5.2577,-1.6 z m 24.2667,-15.0667 v -26 h 6.6667 6.6666 v 26 26 h -6.6666 -6.6667 z m 29.5864,23.2991 c -11.4183,-6.9615 -10.7516,-27.7197 1.0803,-33.6304 5.8795,-2.9372 18.6907,-3.0809 24.12512,-0.2706 5.724,2.9599 9.1973,9.3763 9.2032,17.0014 0.011,13.1513 -7.0002,19.5905 -21.32832,19.5905 -6.3459,0 -9.8486,-0.7206 -13.0803,-2.6909 z m 18.1469,-8.2324 c 0.88,-0.88 1.6,-4.66 1.6,-8.4 0,-7.6208 -1.5861,-10 -6.6666,-10 -5.0806,0 -6.6667,2.3792 -6.6667,10 0,7.6207 1.5861,10 6.6667,10 1.9066,0 4.1866,-0.72 5.0666,-1.6 z m 72.26672,-8.4 v -19.3334 h 7.3333 7.3334 v 19.3334 19.3333 h -7.3334 -7.3333 z m 31.1556,16.7759 c -6.6364,-4.0467 -8.4889,-7.7333 -8.4889,-16.8928 0,-13.0005 6.6774,-19.2165 20.6432,-19.2165 13.403,0 19.1401,4.3824 21.3821,16.3329 l 0.9206,4.9074 -14.3645,0.3799 c -15.412,0.4075 -17.5105,1.4508 -12.6648,6.2965 3.4735,3.4735 7.3299,3.5034 10.75,0.083 1.9555,-1.9556 4.4444,-2.6667 9.3333,-2.6667 3.6667,0 6.6667,0.3298 6.6667,0.7329 0,2.6594 -4.6828,8.885 -7.9564,10.5779 -5.7923,2.9953 -20.9386,2.6864 -26.2213,-0.5349 z m 19.511,-22.7452 c 0,-0.7164 -1.419,-2.2324 -3.1534,-3.3688 -3.6067,-2.3632 -9.2543,-0.9973 -10.6229,2.5693 -0.6739,1.756 0.3938,2.1021 6.4848,2.1021 4.0103,0 7.2915,-0.5862 7.2915,-1.3026 z m 25.1972,22.2568 c -2.4918,-1.6752 -4.7223,-4.3752 -4.9566,-6 -0.3909,-2.7104 0.12,-2.9542 6.1907,-2.9542 4.7662,0 6.8401,0.582 7.4153,2.0811 1.0756,2.8028 10.8201,2.1551 10.8201,-0.7193 0,-1.3295 -2.8222,-2.632 -8.6667,-4 -11.1461,-2.6088 -14.258,-4.466 -15.28,-9.1191 -2.205,-10.0391 5.5928,-15.5317 20.8279,-14.6708 7.2193,0.4079 9.6579,1.1364 12.3872,3.7004 1.869,1.7559 3.3982,4.2879 3.3982,5.6268 0,2.0251 -1.0965,2.4342 -6.524,2.4342 -4.5691,0 -6.754,-0.5993 -7.2915,-2 -1.1238,-2.9287 -9.1877,-2.7254 -8.6156,0.2172 0.3023,1.5548 2.9812,2.7372 8.9666,3.9575 9.9401,2.0267 14.7979,5.7949 14.7979,11.4787 0,9.0332 -6.0364,13.0133 -19.7366,13.0133 -7.3732,0 -10.103,-0.6055 -13.7329,-3.0458 z m -613.19712,-44.2875 v -4.6667 h 6.6666 6.6667 v 4.6667 4.6666 h -6.6667 -6.6666 z m 537.33332,0 v -4.6667 h 7.3333 7.3334 v 4.6667 4.6666 h -7.3334 -7.3333 z M 530.09198,998.96464 c -13.2661,-2.4077 -17.9011,-4.0588 -33.1469,-11.8079 -11.0777,-5.6305 -15.3893,-8.8167 -25.4859,-18.8337 -8.0934,-8.0294 -14.2277,-15.6195 -18.365,-22.7233 -17.597,-30.2142 -20.3241,-67.5705 -7.2312,-99.0539 19.6404,-47.2273 70.2133,-76.0406 119.7488,-68.2252 55.2241,8.7129 94.9292,54.9777 94.9292,110.6125 0,54.9023 -38.5382,100.4777 -92.9931,109.9738 -13.7621,2.39986 -24.4599,2.41636 -37.4559,0.058 z m 49.5198,-11.8644 c 34.3607,-11.2306 59.8865,-38.0124 69.4916,-72.9109 3.2539,-11.8225 3.2619,-38.6104 0.015,-50.5896 -5.4507,-20.1107 -18.2214,-40.3538 -33.8764,-53.6983 -9.5066,-8.1035 -31.2005,-18.7441 -43.8936,-21.5293 -11.8604,-2.6025 -31.4776,-2.6795 -43.318,-0.1701 -38.818,8.227 -69.3905,38.1479 -79.0713,77.3858 -2.953,11.9688 -2.9686,35.5925 -0.031,46.5966 10.5952,39.6878 37.7674,66.9463 76.5766,76.8201 14.8338,3.7739 39.3768,2.9102 54.1068,-1.9043 z m -49.3468,-6.1891 c -18.1178,-3.6024 -32.1504,-11.4995 -47.4537,-26.7057 -9.1918,-9.1334 -12.5636,-13.631 -16.9932,-22.6667 -7.785,-15.8803 -10.0788,-25.7329 -10.0744,-43.2723 0,-16.781 2.9063,-28.5379 10.7401,-43.5102 11.8765,-22.6988 35.6914,-41.2365 60.4815,-47.0792 12.8136,-3.02 34.4362,-2.7046 46.6515,0.6804 41.1306,11.3979 69.3283,48.2375 69.3283,90.5757 0,42.5414 -29.135,80.2151 -70.146,90.704 -10.7887,2.7592 -31.8861,3.3912 -42.5341,1.274 z m 34.6787,-8.6377 c 31.6942,-5.6462 58.44,-30.7776 66.6996,-62.6737 2.675,-10.3297 2.675,-31.0036 0,-41.3333 -4.5723,-17.6568 -16.7926,-36.4369 -30.381,-46.6894 -8.9281,-6.7363 -24.0886,-13.646 -35.0221,-15.962 -43.9746,-9.315 -88.009,18.5232 -99.3324,62.7974 -12.1975,47.6916 19.8602,96.1933 69.0552,104.4769 9.6633,1.6272 17.3006,1.4649 28.9807,-0.6159 z m -35.0778,-9.9501 c -14.1001,-3.8244 -22.2762,-8.6937 -33.6323,-20.0298 -15.9334,-15.9052 -22.6218,-31.7546 -22.6218,-53.6061 0,-26.343 12.5355,-49.3458 34.6971,-63.6695 16.6318,-10.7496 38.825,-14.664 57.8185,-10.1978 26.5753,6.249 48.4379,27.0069 56.2905,53.4463 3.1828,10.7162 3.1887,30.5827 0.012,41.3333 -5.1264,17.351 -18.9744,35.6336 -33.3258,43.998 -18.1058,10.5525 -40.3973,13.836 -59.2386,8.7256 z m 36.588,-8.5771 c 16.7233,-4.4529 34.8162,-19.0006 42.5072,-34.1781 18.3864,-36.2838 0.5709,-80.5645 -37.8739,-94.1359 -11.6641,-4.1175 -29.3999,-4.3378 -41.7645,-0.5188 -38.887,12.0109 -58.1729,56.3971 -40.3563,92.8793 11.6288,23.8118 33.4683,37.7144 59.312,37.7568 6.2334,0.011 14.4123,-0.8013 18.1755,-1.8033 z m -24.8421,-7.625 c -31.7669,-3.6749 -55.4097,-35.548 -49.5884,-66.8505 7.0084,-37.6859 46.8794,-58.6735 81.4952,-42.8981 33.049,15.0613 43.8725,57.4991 22.1801,86.9662 -12.4666,16.9346 -32.3261,25.2998 -54.0869,22.7824 z m 27.888,-12.5785 c 8.8727,-3.9819 19.3842,-14.0091 23.8385,-22.7403 4.5397,-8.8985 6.2113,-20.5601 4.323,-30.1582 -2.3291,-11.8388 -6.6869,-19.4957 -16.0062,-28.1237 -6.6173,-6.1264 -9.9129,-8.0785 -17.5594,-10.4011 -23.5253,-7.1456 -46.7361,2.5448 -58.63,24.4775 -4.3223,7.9704 -4.5206,8.9504 -4.5206,22.3362 0,13.4149 0.1909,14.3521 4.5695,22.4279 6.8119,12.5637 18.9134,22.3002 31.7431,25.5394 8.6474,2.1833 23.2938,0.658 32.2421,-3.3577 z m 520.86542,65.3343 c -43.7743,-8.2889 -78.4404,-41.6454 -88.9006,-85.5421 -2.32722,-9.766 -2.68802,-14.5319 -2.15012,-28.4018 0.72162,-18.607 2.86182,-28.0308 9.62092,-42.3628 14.987,-31.7781 39.0942,-52.0519 73.625,-61.9175 13.6522,-3.9005 40.2702,-4.1671 54.3846,-0.5446 20.5428,5.2724 45.373,20.4222 57.3451,34.9883 9.4629,11.5132 9.0747,10.5882 5.4421,12.9683 -3.226,2.1138 -3.3945,2.0008 -16.3895,-10.9942 -11.7379,-11.738 -14.6107,-13.8436 -27.0971,-19.8613 -16.8412,-8.1165 -28.8128,-10.9429 -46.3505,-10.9429 -27.9636,0 -54.751,11.4564 -73.668,31.5064 -9.2134,9.7652 -11.8966,13.5864 -17.8002,25.3497 -7.774,15.4902 -10.67,28.0624 -10.5527,45.8106 0.1249,18.9067 3.1551,31.2429 11.7722,47.9272 23.7386,45.9624 80.5857,67.02086 128.5849,47.6331 14.0061,-5.6573 22.9735,-11.8208 35.7465,-24.5696 12.2626,-12.2393 12.3936,-12.3246 15.6541,-10.1882 l 3.288,2.1544 -2.9694,4.1702 c -8.9046,12.5053 -27.3311,27.196 -43.054,34.3251 -20.317,9.2121 -45.6504,12.44556 -66.5313,8.4917 z M 108.27838,888.93314 v -102.6667 h 4 4 v 102.6667 102.6666 h -4 -4 z m 17.3334,0 v -102.6667 h 4.6666 4.6667 v 102.6667 102.6666 h -4.6667 -4.6666 z m 18.6666,0 v -102.6667 h 4 4 v 102.6667 102.6666 h -4 -4 z m 17.3334,0 v -102.6667 h 4.6666 4.6667 v 80.6667 80.6666 h 35.3333 35.3334 v 4 4 h -35.3334 -35.3333 v 4.6667 4.6667 h 35.3333 35.3334 v 4.6666 4.6667 h -35.3334 -35.3333 v 4.6667 4.6666 h 35.3333 35.3334 v 4 4 h -40 -40 z m 100,0 v -102.6667 h 4.6666 4.6667 v 102.6667 102.6666 h -4.6667 -4.6666 z m 18.6666,0 v -102.6667 h 4 4 v 102.6667 102.6666 h -4 -4 z m 17.3334,0 v -102.6667 h 4.6666 4.6667 v 102.6667 102.6666 h -4.6667 -4.6666 z m 18.6666,0 v -102.6667 h 52 52 v 3.9832 3.9831 l -47.6666,0.3502 -47.6667,0.3502 -0.4178,4.3333 -0.4178,4.3333 h 48.0845 48.0844 v 4.6667 4.6667 h -48.0844 -48.0845 l 0.4178,4.3333 0.4178,4.3333 47.6667,0.3502 47.6666,0.3502 v 3.9831 3.9832 h -48 -48 v 18 18 h 24.6667 24.6667 v 4.6667 4.6666 h -24.7512 -24.7511 l 0.4178,4.3334 0.4178,4.3333 24.3333,0.3634 24.3334,0.3634 v 3.9699 3.97 h -24.6667 -24.6667 v 4.6666 4.6667 h 24.6667 24.6667 v 4.6667 4.6666 h -24.7054 -24.7054 l 0.3721,17.6667 0.372,17.6667 47.6667,0.3501 47.6666,0.3502 v 3.9832 3.9831 h -48 -48 v 4.6667 4.6667 h 48.0845 48.0845 l -0.4178,4.3333 -0.4178,4.3333 -47.7499,0.3503 -47.7499,0.3503 0.4166,4.3164 0.4165,4.3164 47.6667,0.3501 47.6666,0.3502 v 3.9832 3.9831 h -52 -52 z m 388,22 v -80.6667 h -18 -18 v -4 -4 h 67.3334 67.3333 v 4 4 h -18 -18 v 80.6667 80.6666 h -4.6667 -4.6666 v -80.6666 -80.6667 h -4 -4 v 80.6667 80.6666 h -4.6667 -4.6667 v -80.6666 -80.6667 h -4.6666 -4.6667 v 80.6667 80.6666 h -3.9896 -3.9896 l -0.3437,-80.3333 -0.3438,-80.3333 -4.3333,-0.4179 -4.3333,-0.4178 v 80.7512 80.7511 h -4.6667 -4.6667 z m 118.6667,-22 v -102.6667 h 4.6667 4.6666 v 102.6667 102.6666 h -4.6666 -4.6667 z m 18.6667,0 v -102.6667 h 4 4 v 102.6667 102.6666 h -4 -4 z m 17.3333,0 v -102.6667 h 4.6667 4.6666 v 102.6667 102.6666 h -4.6666 -4.6667 z m 18.6667,0 v -102.6667 h 52 52 v 3.9832 3.9831 l -47.6667,0.3502 -47.6667,0.3502 -0.4165,4.3164 -0.4166,4.3164 47.7499,0.3502 47.7499,0.3503 v 4 4 l -47.6667,0.3502 -47.6666,0.3501 v 4.6499 4.6498 h 48 48 v 4 4 h -48 -48 v 18 18 h 24.6666 24.6667 v 4.6667 4.6666 h -24.6667 -24.6666 v 4.6667 4.6667 h 24.6666 24.6667 v 4 4 h -24.6667 -24.6666 v 4.6666 4.6667 h 24.6666 24.6667 v 4.6667 4.6666 h -24.6667 -24.6666 v 18 18 h 48 48 v 4 4 h -48 -48 v 4.6667 4.6667 h 48.0844 48.0845 l -0.4178,4.3333 -0.4178,4.3333 -47.7499,0.3503 -47.7499,0.3503 0.4166,4.3164 0.4165,4.3164 47.6667,0.3501 47.6667,0.3502 v 3.9832 3.9831 h -52 -52 z m 342.66662,0 v -102.6667 h 4 4 v 102.6667 102.6666 h -4 -4 z m 17.3333,0 v -102.6667 h 4.6667 4.6666 v 102.6667 102.6666 h -4.6666 -4.6667 z m 18.6667,0 v -102.6667 h 4 4 v 102.6667 102.6666 h -4 -4 z m 17.3333,0 v -102.6667 h 4.6667 4.6666 v 40 40 h 40 40 v -40 -40 h 4.6667 4.6667 v 102.6667 102.6666 h -4.6667 -4.6667 v -40 -40 h -40 -40 v 40 40 h -4.6666 -4.6667 z m 89.3333,8.6666 v -4.6666 h -40 -40 v 4.6666 4.6667 h 40 40 z m 0,-17.3333 v -4.6667 h -40 -40 v 4.6667 4.6667 h 40 40 z m 18.6667,8.6667 v -102.6667 h 4 4 v 102.6667 102.6666 h -4 -4 z m 17.3333,0 v -102.6667 h 4.6667 4.6667 v 102.6667 102.6666 h -4.6667 -4.6667 z m 18.6667,0 v -102.6667 h 4 4.0001 v 102.6667 102.6666 h -4.0001 -4 z m -329.9113,91.1975 c -17.6028,-4.2577 -37.8477,-17.1187 -49.7728,-31.6192 -7.3213,-8.9025 -15.446,-24.5686 -18.4514,-35.5783 -3.2191,-11.7928 -3.2302,-36.1793 -0.022,-47.8864 8.9772,-32.7558 34.8945,-58.6141 66.9699,-66.8176 13.761,-3.5195 33.8585,-3.5421 47.4987,-0.053 18.5094,4.7339 37.659,16.8237 48.4743,30.6034 l 5.7814,7.3661 -3.325,2.1812 c -3.3022,2.1662 -3.3998,2.107 -14.2835,-8.6686 -18.2807,-18.0991 -35.4104,-25.2819 -60.2919,-25.2819 -24.936,0 -42.2233,7.2457 -59.9999,25.1483 -16.8098,16.9289 -24.6273,35.7872 -24.6273,59.4089 0,14.7826 2.7262,25.8868 9.5983,39.0959 21.456,41.2411 71.2248,57.4419 112.9482,36.7671 8.925,-4.4225 13.7553,-8.0138 22.384,-16.6425 10.9088,-10.9088 11.0283,-10.9826 13.9494,-8.6173 2.9191,2.3638 2.9232,2.4211 0.4384,6.2133 -9.6499,14.7275 -32.6804,29.7159 -53.0345,34.515 -10.4886,2.473 -33.7479,2.4026 -44.2346,-0.1339 z m 3.7073,-17.7543 c -11.6672,-3.1689 -17.5023,-6.0768 -27.8303,-13.8688 -18.6535,-14.0731 -28.6323,-35.2 -28.6323,-60.6195 0,-56.6131 60.481,-92.5676 111.0302,-66.0048 9.3961,4.9376 26.3031,20.012 26.3031,23.4522 0,0.9975 -1.4079,2.5672 -3.1286,3.4881 -2.917,1.5611 -3.6563,1.121 -10.9347,-6.5096 -5.6734,-5.948 -10.8202,-9.6775 -18.8377,-13.6503 -10.1447,-5.0269 -12.0937,-5.5175 -24.2415,-6.1025 -8.2455,-0.397 -15.8995,-10e-4 -20.367,1.0517 -21.6432,5.1038 -40.1981,21.8889 -48.0067,43.4279 -3.8853,10.717 -4.1963,31.3622 -0.6311,41.8924 9.6264,28.4326 34.6907,46.6666 64.1473,46.6666 19.4935,0 37.0898,-7.826 50.0565,-22.2629 5.9776,-6.6552 6.095,-6.7121 9,-4.3597 1.6189,1.3109 2.9435,2.7863 2.9435,3.2786 0,0.4924 -2.1813,3.5571 -4.8472,6.8106 -6.2621,7.642 -21.8928,18.0625 -32.6755,21.7835 -12.3068,4.247 -30.9186,4.9024 -43.348,1.5265 z m 10.5302,-16.3393 c -32.5323,-3.6818 -56.3943,-39.1444 -47.8443,-71.1039 9.2779,-34.6809 47.0399,-53.5425 78.9421,-39.4306 8.108,3.5865 18.4686,11.2651 22.1212,16.3948 l 2.9202,4.101 -3.126,2.5313 -3.1261,2.5313 -6.7733,-6.6659 c -3.7253,-3.6663 -10.3733,-8.3451 -14.7733,-10.3973 -6.8978,-3.2172 -9.6534,-3.7313 -20,-3.7313 -10.2296,0 -13.1248,0.5272 -19.6241,3.5734 -10.0892,4.7288 -20.1488,14.3406 -24.693,23.5939 -3.3116,6.7434 -3.6829,8.9106 -3.6829,21.4994 0,11.9669 0.4511,14.9159 3.1065,20.3075 4.9359,10.0222 13.9741,19.0728 23.9524,23.985 8.0673,3.9715 9.9921,4.3722 20.913,4.3532 10.2218,-0.018 13.1799,-0.5577 19.6983,-3.5946 4.2186,-1.9654 10.8883,-6.6171 14.8217,-10.3371 7.1283,-6.7417 7.1613,-6.7556 10.2007,-4.2945 l 3.0493,2.4692 -3.2043,4.3466 c -10.5357,14.2916 -31.744,22.2605 -52.8781,19.8686 z M 668.27838,808.26644 v -4.6667 h 67.3334 67.3333 v 4.6667 4.6667 h -67.3333 -67.3334 z m 0,-18 v -4 h 67.3334 67.3333 v 4 4 h -67.3333 -67.3334 z m -563.1535,-69.4301 c -4.611,-3.627 -4.6404,-9.046 -0.072,-13.3375 l 3.4408,-3.2324 h 658.4518 658.45192 l 3.4407,3.2324 c 4.5681,4.2915 4.5386,9.7105 -0.072,13.3375 l -3.5131,2.7634 h -658.30752 -658.307 z m 490.1844,-70.69074 c -33.5473,-3.25175 -65.165,-24.52905 -80.8751,-54.42525 -2.5683,-4.88758 -6.2713,-14.26418 -8.2288,-20.83688 -3,-10.07285 -3.5574,-14.4641 -3.5474,-27.95036 0.014,-18.33649 2.7536,-31.02568 9.6868,-44.85803 19.7938,-39.4906 57.0056,-61.30298 101.6755,-59.59898 l 11.9805,0.45702 4.5156,-13.33334 c 7.1354,-21.0695 7.3235,-22.50601 3.6065,-27.54414 -6.7232,-9.11279 -9.0174,-17.88766 -9.0086,-34.45585 0.012,-22.59386 6.7475,-44.92048 20.6648,-68.49838 20.9028,-35.41223 48.335,-56.78705 84.1587,-65.57528 11.9701,-2.93648 38.3141,-3.96024 51.6667,-2.00784 31.9072,4.66545 67.741,21.54143 79.2346,37.31555 9.4821,13.01362 12.899,22.05935 18.1568,48.06659 l 3.6457,18.03269 13.8184,-0.66667 c 29.8463,-1.43992 48.0736,-0.82537 55.0232,1.85516 13.6339,5.25872 23.4229,18.73411 23.4489,32.27922 0.016,8.58608 -1.8789,14.22922 -7.4097,22.06143 l -4.3753,6.19582 3.413,3.13752 c 11.6146,10.677 14.2202,20.84077 7.1542,27.90674 -2.9264,2.92647 -5.1472,3.89744 -8.9138,3.89744 -4.3961,0 -5.9338,-0.97385 -12.4359,-7.87618 -9.5663,-10.15514 -14.4248,-12.5918 -23.5913,-11.83164 -8.0985,0.67158 -21.2128,7.87824 -24.4179,13.41828 -1.7032,2.94401 -1.6419,4.25248 0.5367,11.44777 2.3435,7.74 2.6233,8.0778 5.923,7.14948 7.0207,-1.9752 32.4163,-0.72983 42.988,2.10809 30.4429,8.17223 55.23402,29.13592 68.34952,57.79716 6.9233,15.12943 9.2263,26.15749 9.1442,43.78704 -0.082,17.65995 -3.7982,32.81531 -11.7618,47.97013 -26.08262,49.63536 -87.74312,69.2568 -138.58992,44.10176 -26.1738,-12.94874 -46.617,-38.02848 -53.9253,-66.15573 l -2.4033,-9.24949 -12.231,-0.38419 -12.231,-0.38419 -5.459,4.67268 c -14.643,12.53386 -39.0067,11.9105 -51.8363,-1.32626 l -4.4372,-4.57804 h -14.3797 -14.3797 l -0.8045,3.66666 c -11.9732,54.57302 -59.0595,89.49417 -113.5488,84.21249 z m 31.6358,-28.78285 c 23.8856,-6.52125 44.0479,-25.40132 52.2201,-48.89912 2.7158,-7.80894 2.8579,-9.11374 1.1132,-10.22072 -1.1,-0.69793 -14.6,-1.32586 -30,-1.3954 -15.4,-0.0696 -33.0141,-0.54284 -39.1424,-1.05177 -9.9618,-0.82729 -11.4805,-1.3184 -14.3333,-4.635 -1.9333,-2.24755 -3.1909,-5.39744 -3.1909,-7.99184 0,-2.3552 5.3119,-20.59133 11.8043,-40.52474 9.4354,-28.96938 11.4204,-36.38992 9.891,-36.9768 -3.4664,-1.33015 -15.5371,-0.72103 -25.0287,1.26302 -49.2746,10.29999 -75.7228,65.43736 -53.0582,110.61245 11.0127,21.95052 33.9101,38.45802 58.0266,41.83322 10.1427,1.41953 21.8478,0.67608 31.6983,-2.0133 z m 321.5878,0.0601 c 25.7354,-7.56198 46.0683,-28.12668 53.87552,-54.48975 1.5018,-5.07144 2.3691,-12.39284 2.3691,-20 0,-42.28968 -33.67262,-76.85465 -75.23432,-77.22826 -6.4289,-0.0577 -12.1443,0.34577 -12.7009,0.89681 -0.5566,0.55103 4.4888,18.27707 11.212,39.3912 6.7233,21.11413 12.2241,40.50102 12.2241,43.082 0,3.41844 -1.0316,5.68101 -3.7991,8.33244 l -3.799,3.63974 -40.2347,-0.39029 -40.2346,-0.39031 0.8563,4 c 1.2777,5.9687 8.0657,19.11415 13.7829,26.69146 10.8574,14.3901 31.5485,26.10645 51.4282,29.1212 6.5352,0.99106 22.6597,-0.4246 30.2545,-2.65624 z m -174.3154,-71.7117 c 8.0306,-3.35538 9.0939,-6.55021 9.7887,-29.41048 1.6547,-54.4403 -8.5617,-85.54105 -37.6981,-114.76133 -8.6591,-8.68405 -13.276,-12.04802 -24.241,-17.66256 -7.4496,-3.81449 -15.0757,-8.75496 -16.947,-10.97879 -9.1642,-10.8911 -4.2125,-26.15255 14.4527,-44.54418 27.1103,-26.71287 69.1317,-42.85325 87.2182,-33.5004 6.4705,3.34603 15.3739,23.16775 20.0689,44.6797 3.342,15.31249 8.1337,24.98345 16.5041,33.31014 7.9574,7.91576 14.7585,10.58924 29.5811,11.62817 19.928,1.39678 65.6861,-6.94005 72.3252,-13.17719 3.778,-3.5492 3.8696,-9.16751 0.2037,-12.48779 -2.4355,-2.20596 -4.9342,-2.53851 -19,-2.52871 -8.9075,0.007 -25.1956,0.52147 -36.1956,1.14504 -21.7336,1.23204 -25.7063,0.56638 -29.2936,-4.90854 -1.1548,-1.76252 -4.1733,-13.9393 -6.7076,-27.05951 -5.3322,-27.60461 -8.4485,-36.89712 -14.9018,-44.4364 -8.7937,-10.27344 -31.404,-21.09283 -53.7574,-25.72381 -10.0837,-2.08904 -15.9419,-2.48656 -28.6729,-1.94568 -18.9242,0.80401 -28.0355,3.00757 -43.3333,10.48017 -9.5181,4.64933 -13.469,7.69046 -24.6667,18.98674 -19.393,19.56374 -30.9695,40.74947 -36.0662,66.0037 -4.0558,20.09612 -0.7077,33.10785 10.5982,41.1884 3.0074,2.14944 13.568,8.26538 23.468,13.59098 34.6311,18.62946 56.794,36.30336 63.025,50.25947 6.4861,14.5276 8.1043,27.26915 7.2978,57.46445 l -0.7226,27.05631 3.2454,3.85693 c 1.785,2.12131 4.5749,4.11427 6.1999,4.42879 1.625,0.31452 3.1238,0.65357 3.3307,0.75344 0.2068,0.0999 2.4102,-0.66831 4.8962,-1.70706 z m 134.0609,-12.9334 c 0,-1.50005 -17.2978,-56.13935 -18.0271,-56.94295 -0.2154,-0.2374 -2.3944,0.604 -4.8422,1.86978 -6.5248,3.37412 -19.9917,17.45711 -24.7624,25.8952 -4.7506,8.40264 -9.7016,22.33021 -9.7016,27.29127 v 3.3754 h 28.6667 c 20.2167,0 28.6666,-0.43882 28.6666,-1.4887 z m -82.4612,-11.2248 c 3.7271,-19.21717 15.6739,-40.67491 30.2103,-54.26113 6.1663,-5.76326 20.8306,-16.10748 24.6296,-17.37384 1.1616,-0.38717 1.1946,-1.36078 0.1274,-3.75381 -1.4206,-3.18509 -1.9891,-3.28087 -39.9735,-6.73304 -21.1929,-1.92609 -38.7555,-3.30308 -39.0281,-3.05997 -0.2726,0.2431 0.7314,5.119 2.2311,10.83532 4.9973,19.0479 6.1434,29.77192 6.2046,58.0575 l 0.06,27.6642 6.6667,-10e-4 6.6666,-10e-4 2.2055,-11.3714 z m -142.8721,8.00476 c 0,-3.68292 -5.4773,-18.48729 -9.3572,-25.29126 -2.0909,-3.66667 -6.0702,-9.31308 -8.8428,-12.54757 -6.0843,-7.09778 -20.5058,-17.96782 -21.8953,-16.50331 -1.1841,1.24808 -17.238,50.91173 -17.238,53.32673 0,1.26188 6.2324,1.76191 25.6666,2.05923 14.1167,0.21596 27.0167,0.52892 28.6667,0.69545 1.937,0.19552 3,-0.42075 3,-1.73927 z m 46.7116,0.3754 c 0.025,-0.91666 0.6089,-7.92565 1.2982,-15.57553 2.3419,-25.98773 -1.7742,-48.1224 -10.5113,-56.52549 -13.3663,-12.85528 -48.6981,-34.23231 -56.579,-34.23231 h -4.6812 l -4.1042,12.2372 c -2.2573,6.73047 -3.9609,12.36906 -3.7858,12.5302 0.1751,0.16116 4.2184,2.54567 8.985,5.29894 13.6092,7.86073 30.1221,25.40782 37.6286,39.98521 5.9944,11.64087 11.7048,28.67794 11.7048,34.92165 0,2.8778 0.4922,3.0268 10,3.0268 7.0871,0 10.013,-0.48547 10.0449,-1.66667 z m 148.2902,-115.99999 c 0.3957,-1.18327 -2.9558,-2.11216 -11.5556,-3.20267 -15.57,-1.97439 -25.9428,-5.67519 -34.9342,-12.46379 -14.9043,-11.2528 -24.103,-26.78033 -30.0061,-50.65023 -2.0844,-8.42846 -5.0826,-18.50994 -6.6628,-22.40327 -2.7718,-6.82912 -3.0195,-7.04795 -7.0248,-6.20419 -15.088,3.17846 -38.2302,16.83207 -50.7038,29.91454 l -7.8854,8.27042 8.2909,4.4298 c 15.3126,8.18136 32.1568,23.31551 43.3802,38.97605 2.7591,3.85 5.4103,7.04655 5.8915,7.10344 8.7816,1.03828 81.0928,7.60382 85.0972,7.72644 3.3901,0.10387 5.7728,-0.47949 6.1129,-1.49654 z m 35.9997,-119.02195 c -31.5142,-6.84594 -53.0734,-39.5467 -46.5753,-70.64471 1.0726,-5.13333 1.6731,-9.79474 1.3343,-10.35869 -0.3387,-0.56394 -3.4953,-2.48444 -7.0145,-4.26778 -11.5806,-5.86834 -15.8244,-13.95484 -11.8738,-22.62543 2.4144,-5.29913 6.7896,-7.32537 23.5331,-10.89872 21.5636,-4.60202 50.0781,-5.74028 65.5031,-2.61477 15.1682,3.07346 26.5692,8.5079 35.4302,16.88833 18.9199,17.89367 21.721,42.54054 8.1104,71.36337 -8.2557,17.48287 -24.9092,30.24336 -44.0272,33.7353 -9.8594,1.80082 -13.916,1.70499 -24.4203,-0.5769 z m 23.4013,-26.68988 c 6.8932,-2.04707 15.4404,-8.26703 12.9305,-9.40987 -0.7333,-0.33391 -13.6333,-7.4662 -28.6666,-15.84951 l -27.3334,-15.2424 -1.1715,3.45487 c -1.6472,4.85732 1.1336,16.12557 5.7922,23.47152 5.4704,8.62582 17.1363,15.04566 28.1373,15.48408 1.8836,0.0751 6.5238,-0.78385 10.3115,-1.90869 z"
         id="path417" /></g></g></svg>
