<?xml version="1.0" encoding="UTF-8" standalone="no"?>
<!-- Created with Inkscape (http://www.inkscape.org/) -->

<svg
   width="742.04126mm"
   height="472.58182mm"
   viewBox="0 0 742.04129 472.58184"
   version="1.1"
   id="svg5"
   xml:space="preserve"
   inkscape:version="1.2.1 (9c6d41e, 2022-07-14)"
   sodipodi:docname="logo1.svg"
   xmlns:inkscape="http://www.inkscape.org/namespaces/inkscape"
   xmlns:sodipodi="http://sodipodi.sourceforge.net/DTD/sodipodi-0.dtd"
   xmlns="http://www.w3.org/2000/svg"
   xmlns:svg="http://www.w3.org/2000/svg"><sodipodi:namedview
     id="namedview7"
     pagecolor="#ffffff"
     bordercolor="#000000"
     borderopacity="0.25"
     inkscape:showpageshadow="2"
     inkscape:pageopacity="0.0"
     inkscape:pagecheckerboard="0"
     inkscape:deskcolor="#d1d1d1"
     inkscape:document-units="mm"
     showgrid="false"
     inkscape:zoom="0.2102413"
     inkscape:cx="1816.9598"
     inkscape:cy="1086.8464"
     inkscape:window-width="1800"
     inkscape:window-height="1097"
     inkscape:window-x="0"
     inkscape:window-y="44"
     inkscape:window-maximized="0"
     inkscape:current-layer="layer1" /><defs
     id="defs2" /><g
     inkscape:label="Layer 1"
     inkscape:groupmode="layer"
     id="layer1"
     transform="translate(524.54247,137.7788)"><path
       style="fill:#000000;stroke-width:0.264583"
       d="m -224.4683,334.73567 c -1.67349,-0.09 -70.61068,-0.19735 -153.19375,-0.23854 -82.58308,-0.0412 -148.66276,-0.16325 -146.84375,-0.27123 1.81901,-0.10795 5.50994,-0.27405 8.20208,-0.36912 2.69213,-0.0951 5.6687,-0.22222 6.61458,-0.28257 0.94589,-0.0604 3.92245,-0.17587 6.61459,-0.25668 2.69213,-0.0808 5.90682,-0.20248 7.14375,-0.2704 1.23692,-0.0679 4.03489,-0.18746 6.2177,-0.26564 2.18282,-0.0782 5.33797,-0.19841 7.01146,-0.26718 1.67349,-0.0687 4.47146,-0.18301 6.21771,-0.25392 1.74625,-0.0709 4.72281,-0.19394 6.61458,-0.27339 1.89178,-0.0795 12.54787,-0.49753 23.68021,-0.92901 11.13235,-0.43148 21.60985,-0.84809 23.28334,-0.92578 1.67349,-0.0777 9.05536,-0.37462 16.40416,-0.65989 7.34881,-0.28528 14.84974,-0.5814 16.66875,-0.65807 1.81902,-0.0767 6.34339,-0.25633 10.05417,-0.39926 3.71078,-0.1429 7.99703,-0.31753 9.525,-0.38806 1.52797,-0.0705 4.50453,-0.19156 6.61458,-0.26893 4.87493,-0.17875 16.06447,-0.61526 20.37292,-0.79478 1.81901,-0.0758 6.40292,-0.25553 10.18646,-0.39949 3.78354,-0.14394 7.95073,-0.31827 9.26042,-0.38738 1.30968,-0.0691 4.34578,-0.19039 6.74687,-0.2695 2.4011,-0.0791 5.49672,-0.1999 6.87917,-0.26842 1.38245,-0.0686 4.35901,-0.18881 6.61458,-0.26723 2.25558,-0.0784 5.17261,-0.19625 6.48229,-0.26186 1.30969,-0.0656 4.52438,-0.18894 7.14375,-0.27408 2.61938,-0.0851 5.35782,-0.19974 6.08542,-0.25461 0.72761,-0.0549 4.06136,-0.18989 7.40833,-0.29999 3.34698,-0.11012 6.17472,-0.22161 6.28386,-0.24781 0.10914,-0.0262 0.64492,-0.063 1.19062,-0.0818 0.93348,-0.0322 0.78082,-0.14894 -2.57968,-1.97324 -6.18049,-3.35516 -10.91266,-6.4335 -16.13959,-10.49893 -20.50804,-15.95088 -34.83269,-38.98281 -40.06665,-64.42126 -1.25931,-6.1206 -2.26422,-14.71535 -2.26605,-19.38073 v -1.65364 h -74.39202 c -40.9156,0 -74.3424,-0.044 -74.28176,-0.0978 0.0606,-0.0538 1.24133,-0.17635 2.62378,-0.27231 1.38245,-0.096 3.22792,-0.23397 4.10104,-0.30671 1.85184,-0.15422 13.26822,-1.05346 18.25625,-1.43804 1.89177,-0.14583 4.09443,-0.32287 4.8948,-0.3934 0.80036,-0.0705 3.12208,-0.25244 5.15937,-0.40429 2.03729,-0.15184 4.23995,-0.32697 4.89479,-0.3892 0.65485,-0.0622 2.0836,-0.17881 3.175,-0.25911 3.94849,-0.29043 24.44015,-1.90105 26.9875,-2.12119 0.80037,-0.0692 3.12209,-0.2508 5.15938,-0.40365 2.03729,-0.15287 4.23995,-0.32882 4.89479,-0.39105 0.65484,-0.0622 2.14312,-0.18166 3.30729,-0.26543 1.16417,-0.0838 2.83104,-0.21114 3.70417,-0.28305 0.87312,-0.0719 5.3975,-0.42635 10.05416,-0.78764 4.65667,-0.36129 9.12151,-0.71615 9.92188,-0.78862 0.80036,-0.0724 4.61036,-0.37237 8.46667,-0.66651 3.8563,-0.29414 7.54724,-0.58462 8.20208,-0.6455 0.65484,-0.0609 2.08359,-0.17751 3.175,-0.25916 1.82298,-0.13639 13.15029,-1.02031 17.19792,-1.34202 0.94588,-0.0752 2.44932,-0.20193 3.34097,-0.28168 l 1.62121,-0.14501 0.18613,-1.90067 c 0.30814,-3.1465 1.40018,-9.33595 2.36604,-13.41 5.86269,-24.72963 20.63782,-47.13854 41.20999,-62.50184 16.67185,-12.45057 35.83557,-19.7043 57.10899,-21.61666 4.72657,-0.42487 17.49214,-0.14803 22.225,0.48197 13.65602,1.81782 24.25359,5.01705 35.96939,10.85855 1.97221,0.98332 4.00254,2.02721 4.51186,2.31976 2.65293,1.52376 6.26153,3.79124 8.77732,5.51521 l 2.82416,1.93532 2.48333,-2.82588 c 2.38127,-2.70973 15.13109,-18.02196 18.2295,-21.89319 3.4658,-4.33022 5.19477,-7.45497 6.09523,-11.01576 0.95046,-3.758596 0.4232,-9.249705 -1.61451,-16.814302 l -0.30293,-1.124479 -170.97677,-0.04207 c -94.03723,-0.02302 -168.95273,-0.126153 -166.47887,-0.228944 2.47385,-0.102817 6.64104,-0.265086 9.26041,-0.360627 8.93748,-0.325966 16.80219,-0.624787 21.69584,-0.824283 1.60073,-0.06527 5.05354,-0.183488 7.67291,-0.262731 2.61938,-0.07924 5.77454,-0.19857 7.01146,-0.265165 1.23693,-0.0666 4.39209,-0.18632 7.01146,-0.266065 2.61938,-0.07972 5.89359,-0.198464 7.27604,-0.263896 1.38245,-0.0654 4.53761,-0.183541 7.01146,-0.262519 2.47386,-0.07898 5.86714,-0.198676 7.54063,-0.265986 1.67349,-0.06734 4.88817,-0.186584 7.14375,-0.265033 2.25557,-0.07845 5.41073,-0.197273 7.01145,-0.264028 1.60073,-0.06675 4.87495,-0.186134 7.27605,-0.265297 2.40109,-0.07916 5.67531,-0.198544 7.27604,-0.265298 1.60073,-0.06673 4.99401,-0.185182 7.54062,-0.263208 2.54662,-0.07803 5.70177,-0.197405 7.01146,-0.265244 1.30969,-0.06784 4.52438,-0.186267 7.14375,-0.263182 2.61938,-0.07689 5.95313,-0.196188 7.40833,-0.265138 1.45521,-0.06895 4.61037,-0.187749 7.01146,-0.264055 2.4011,-0.07628 5.73485,-0.196082 7.40834,-0.266223 7.09213,-0.29726 9.64083,-0.3937 14.02291,-0.530569 2.54662,-0.07953 5.82084,-0.198411 7.27605,-0.264187 1.4552,-0.06577 4.66989,-0.182906 7.14375,-0.260323 2.47385,-0.07739 5.86713,-0.197962 7.54062,-0.267917 3.38704,-0.141579 7.30769,-0.287576 17.85938,-0.665004 3.92906,-0.14052 8.75109,-0.317236 10.71562,-0.392668 1.96453,-0.07543 6.8461,-0.254847 10.84792,-0.398675 4.00182,-0.143827 8.88338,-0.323109 10.84791,-0.398356 1.96454,-0.07527 6.8461,-0.253365 10.84792,-0.39579 4.00182,-0.142426 8.88339,-0.320226 10.84792,-0.395129 1.96453,-0.0749 5.11969,-0.193702 7.01146,-0.264028 1.89177,-0.07033 4.98739,-0.186928 6.87916,-0.259106 3.44451,-0.131445 4.7288,-0.177695 18.52084,-0.66683 4.07458,-0.144489 8.71802,-0.320331 10.31875,-0.390736 1.60073,-0.07041 5.11307,-0.196454 7.80521,-0.280088 2.69213,-0.08366 5.66869,-0.199496 6.61458,-0.257387 0.94589,-0.05792 4.63682,-0.185394 8.20208,-0.283342 3.56526,-0.09792 6.55262,-0.217938 6.63856,-0.266727 0.086,-0.04876 1.78271,-0.10496 3.7706,-0.12483 1.98787,-0.01984 3.68036,-0.143034 3.76105,-0.273606 0.0807,-0.130572 -0.098,-1.367075 -0.39714,-2.747777 -0.73916,-3.411617 -0.719,-4.206955 0.11626,-4.587531 0.64257,-0.292788 0.64926,-0.323903 0.25117,-1.166945 -0.5225,-1.106514 -3.98772,-13.399664 -5.5767,-19.783875 -0.67006,-2.692135 -1.35297,-5.360432 -1.5176,-5.92955 -0.46146,-1.595306 -1.26169,-2.02528 -4.02555,-2.163022 -5.88047,-0.293026 -6.69396,-0.909479 -8.18137,-6.199717 -0.83473,-2.96889 -1.18867,-3.693795 -2.23232,-4.571948 -1.21719,-1.024202 -3.25448,-1.897036 -8.54345,-3.660272 -5.95164,-1.984137 -8.47696,-3.254851 -10.67519,-5.371703 -2.52347,-2.430013 -2.55037,-3.8046286 -0.10129,-5.1767046 1.11993,-0.627433 1.38486,-0.660242 5.14943,-0.637884 3.41392,0.02037 4.85648,0.179255 10.31875,1.137391 9.14487,1.6040886 12.58575,1.8917966 22.57867,1.8879336 4.70567,-0.0026 8.63473,-0.04921 8.73125,-0.105278 0.32285,-0.187563 10.16773,-0.4829966 15.58748,-0.4677826 2.9468,0.0082 5.35781,-0.04498 5.35781,-0.118348 0,-0.07337 -0.46426,-1.645841 -1.03166,-3.494405 -1.30903,-4.264528 -4.10623,-14.437996 -4.94088,-17.9699454 -2.98154,-12.616895 -1.88601,-23.900421 3.32361,-34.232136 0.58378,-1.157737 1.06143,-2.161434 1.06143,-2.230411 0,-0.06895 -41.98937,-0.125386 -93.30973,-0.125386 -51.32033,0 -93.2601,-0.04575 -93.19948,-0.10168 0.0606,-0.05593 1.71759,-0.183197 3.68213,-0.282813 1.96453,-0.09962 3.98859,-0.223044 4.49791,-0.274293 1.0953,-0.110226 2.07772,-0.172641 18.78542,-1.193456 7.05776,-0.431218 13.6062,-0.843307 14.55208,-0.915776 0.94589,-0.07244 2.91042,-0.200052 4.36563,-0.283528 1.45521,-0.0835 4.31271,-0.260456 6.35,-0.393276 2.03729,-0.132821 4.89479,-0.307817 6.35,-0.388911 1.45521,-0.08107 3.41974,-0.201878 4.36562,-0.26842 3.07988,-0.216694 5.78959,-0.388911 16.66875,-1.059392 5.8936,-0.363246 11.48953,-0.715354 12.43542,-0.782479 0.94589,-0.06712 2.96995,-0.193516 4.49792,-0.280828 1.52797,-0.08734 3.3139,-0.20574 3.96875,-0.263102 0.65484,-0.05736 2.61937,-0.172879 4.36562,-0.256699 1.74625,-0.08382 3.71078,-0.204417 4.36563,-0.268023 0.65484,-0.06358 2.26218,-0.18116 3.57187,-0.261276 8.16954,-0.499745 30.22145,-1.881584 42.33334,-2.652739 1.16416,-0.07411 5.03369,-0.313081 8.59895,-0.531 3.56526,-0.217932 7.31573,-0.454483 8.33438,-0.525672 1.01864,-0.07119 3.81661,-0.250872 6.21771,-0.399294 4.85177,-0.29992 7.55017,-0.47694 9.92187,-0.65091 0.87313,-0.064 3.09589,-0.19442 4.93946,-0.28973 l 3.35198,-0.17329 1.68021,-1.49077 c 2.96092,-2.62708 5.52667,-4.62953 10.36709,-8.09106 10.92702,-7.81422 19.16326,-12.74223 26.98657,-16.14691 4.70233,-2.04644 11.58557,-4.39874 9.56011,-3.2671 -1.0709,0.59833 -6.92745,4.56337 -8.46667,5.73216 -5.29399,4.01998 -12.32241,10.76478 -16.03859,15.39139 -6.24324,7.77282 -10.58315,15.849291 -13.04721,24.280609 -1.53414,5.249254 -1.84859,7.205451 -1.83812,11.434101 0.008,3.283718 0.11341,4.246854 0.73073,6.684884 1.20203,4.747339 2.96527,8.602371 6.0792,13.291158 3.50303,5.2746544 7.58777,9.6563134 15.25045,16.3589764 2.83766,2.482163 7.70893,7.0200836 10.82506,10.0843026 3.11613,3.064219 5.25925,5.012002 4.7625,4.328425 -0.49676,-0.683604 -1.29852,-1.814698 -1.78173,-2.513542 -0.48321,-0.69887 -3.92237,-5.6164426 -7.6426,-10.9279526 -18.41251,-26.2874394 -19.9222,-28.5067124 -19.9222,-29.2847454 0,-0.97417 3.33743,2.496158 17.60363,18.3045364 17.84766,19.7769956 27.55842,30.1823446 38.48349,41.2361606 10.01146,10.129414 19.45918,18.890244 24.59535,22.807136 l 1.30948,0.998617 -3.62358,2.031285 c -17.51581,9.819006 -35.40964,23.389829 -58.43341,44.316383 -1.44095,1.30969 -5.58073,4.7625 -9.19951,7.67292 -3.61879,2.91042 -7.97418,6.42276 -9.67865,7.80521 -1.70447,1.38245 -6.39487,5.17268 -10.42307,8.42272 -6.37646,5.14464 -7.30213,5.98331 -7.15465,6.48229 0.0932,0.31523 0.58838,1.64468 1.1005,2.95436 2.16937,5.5479 4.94761,9.54742 7.97722,11.48396 1.49825,0.95766 4.66555,2.03446 6.7156,2.28311 l 1.52135,0.18452 v 1.2263 c 0.006,5.98773 5.02359,34.27044 6.30791,35.55476 0.25463,0.25463 3.03797,-5.13205 6.59569,-12.76493 0.44088,-0.94589 1.35858,-2.91042 2.03933,-4.36563 4.70752,-10.063 19.651,-44.73578 19.39208,-44.9947 -0.0474,-0.0474 -1.57149,0.8178 -3.38675,1.92275 -10.87292,6.6184 -26.29328,15.31036 -29.49424,16.62494 -1.25203,0.51419 -1.14332,0.40151 1.45521,-1.50833 1.09141,-0.80214 3.82984,-2.827 6.08542,-4.49967 19.94439,-14.79018 43.42545,-31.7305 57.41458,-41.421528 C -9.67862,95.61054 3.90676,86.565653 7.7562,84.08701 15.77398,78.924433 19.67492,75.306812 21.82836,71.03686 23.11416,68.487361 23.53998,66.477745 23.35472,63.833658 23.0868,60.010296 22.30789,58.201393 18.62666,52.853449 17.32446,50.961678 14.49403,46.794491 12.33683,43.593033 10.1796,40.391575 7.1828,35.946971 5.67724,33.716137 -8.36224,12.913298 -17.13185,1.9240674 -28.77487,-9.4559266 -31.827,-12.439104 -37.6079,-18.098197 -41.62132,-22.031705 c -5.80707,-5.691426 -7.87791,-7.544567 -10.1414,-9.075288 -1.56435,-1.057883 -2.84427,-2.077429 -2.84427,-2.2656 0,-0.647436 1.0413,-3.367009 2.09611,-5.474494 2.65607,-5.306642 6.56373,-9.839193 11.19283,-12.982761 3.5656,-2.421361 10.15672,-5.292804 16.94884,-7.383859 3.1814,-0.979437 10.53597,-2.894307 11.11633,-2.894307 0.13158,0 -0.44952,0.36231 -1.29135,0.80512 -3.95081,2.078246 -7.58954,5.418465 -10.21974,9.381342 -1.93887,2.921238 -4.95462,8.372501 -6.43337,11.62894 l -0.95539,2.10394 2.20488,-2.10394 c 7.51676,-7.172643 14.59588,-12.182369 20.80342,-14.722052 6.32669,-2.588419 17.00885,-4.26257 30.86974,-4.83803 2.03729,-0.0846 4.89479,-0.20785 6.35,-0.27393 1.4552,-0.0661 4.3127,-0.18944 6.35,-0.27413 7.6464,-0.31785 14.61979,-1.35304 19.15067,-2.84289 l 2.58117,-0.84874 -1.08381,1.32732 c -1.2177,1.4913 -3.27031,5.321128 -4.25744,7.943705 -0.68143,1.810411 -4.44624,16.356224 -5.54419,21.42064 -1.02049,4.707308 -1.5367,8.478362 -1.52122,11.113294 0.0172,2.931002 2.29865,7.873154 10.34288,22.40555244 C 59.58869,10.045717 64.54113,19.38625 64.38974,19.537618 64.33184,19.595508 63.44692,18.602263 62.4232,17.330438 57.59114,11.327386 53.18847,5.9119474 52.26177,4.8315744 c -0.90342,-1.053254 -0.45548,0.07615 3.88279,9.7895826 2.69718,6.039115 6.82794,15.385521 9.17942,20.769793 2.55358,5.846974 6.68462,14.584653 10.25748,21.695833 3.88604,7.734538 6.50343,13.296821 7.47016,15.875 0.81849,2.182813 2.58218,6.918166 3.91933,10.523009 2.68089,7.227543 2.40834,6.864932 4.33977,5.774319 0.62976,-0.3556 0.81106,-0.656405 0.87757,-1.455923 0.0869,-1.04431 -0.45778,-2.560108 -3.70758,-10.31867 -0.84762,-2.02364 -1.50328,-3.717211 -1.457,-3.763487 0.0885,-0.0885 5.32489,6.439853 8.66208,10.799234 2.12953,2.781829 2.33461,2.853319 3.07872,1.07315 0.48797,-1.167395 0.30599,-1.726301 -1.80311,-5.537756 -2.24914,-4.06445 -4.37017,-7.233946 -7.28466,-10.885435 -2.65946,-3.331977 -2.29352,-2.972567 6.82344,6.701976 3.83977,4.074583 7.0957,7.408333 7.23543,7.408333 0.46842,0 1.46579,-1.789112 1.45992,-2.618819 -0.01,-1.333368 -0.82304,-2.742459 -3.60566,-6.244723 -1.44524,-1.81901 -2.7314,-3.475857 -2.85814,-3.681888 -0.26051,-0.423519 1.72982,0.662596 5.35779,2.923698 l 2.46004,1.533208 1.05751,-1.64428 c 1.75334,-2.726214 3.66017,-6.844268 4.07419,-8.798692 1.02997,-4.862222 0.01,-10.485597 -2.2469,-12.384432 -1.58014,-1.32961 -2.35143,-1.394539 -9.19022,-0.773827 -3.41304,0.309801 -6.26591,0.62365 -6.33971,0.697442 -0.0738,0.07379 0.87876,2.106401 2.11683,4.516887 1.23804,2.410487 2.21525,4.382717 2.17154,4.382717 -0.0437,0 -1.9077,-2.09669 -4.14221,-4.659339 l -4.06278,-4.659339 -0.1323,2.047875 -0.13229,2.047849 -4.30059,-10.499963 C 81.14022,35.009341 81.11765,34.94346 80.08392,29.889203 79.51298,27.097558 79.07729,24.78203 79.11573,24.74356 c 0.0385,-0.03844 2.18861,4.663202 4.77809,10.448105 2.58947,5.78493 4.79785,10.617412 4.90752,10.738856 0.38277,0.423968 10.08493,-2.634509 13.63564,-4.298421 1.80499,-0.845846 2.68502,-1.472777 4.20283,-2.994051 2.05552,-2.060205 4.93453,-5.839249 7.29279,-9.572653 2.80442,-4.439761 4.99552,-7.70374 5.65023,-8.416951 2.0706,-2.25552 4.34557,-2.362359 6.30814,-0.296228 1.0069,1.060054 1.4523,2.276026 2.19038,5.979954 1.74368,8.750433 6.74608,21.246784 10.49457,26.216293 1.6048,2.127541 3.35952,3.582062 5.81017,4.816211 2.7306,1.375092 3.56793,2.920788 2.3777,4.389146 -0.42989,0.530357 -0.73935,0.622909 -2.05052,0.613304 -2.30529,-0.01693 -4.36671,-1.211103 -7.50514,-4.347845 -2.64851,-2.647077 -5.0141,-5.966063 -7.26496,-10.192914 -2.60715,-4.895929 -3.7361,-6.398895 -5.48285,-7.299219 -1.86296,-0.960252 -3.45596,-0.536019 -4.36986,1.163717 -0.66556,1.23788 -0.54372,5.372867 0.33284,11.294877 0.92803,6.269726 1.03781,12.077436 0.28507,15.08125 -0.59891,2.389902 -1.98329,5.558314 -3.52066,8.057542 -1.47867,2.403872 -1.81374,3.526605 -2.33304,7.817459 -0.87021,7.190237 -1.85878,9.6012 -4.67878,11.410791 -0.69504,0.446008 -1.76634,1.411261 -2.38065,2.145004 -0.61433,0.733742 -1.47965,1.485609 -1.92296,1.670843 -0.81214,0.339328 -3.01924,0.48432 -6.26933,0.411877 -1.22457,-0.0273 -2.17853,0.12491 -3.1278,0.499083 -0.7512,0.2961 -1.92286,0.54113 -2.60368,0.54449 -0.6808,0.003 -1.9522,0.0159 -2.82533,0.0276 -0.87313,0.0119 -2.07412,0.0236 -2.66888,0.0259 -0.59476,0.003 -1.70825,-0.20384 -2.47441,-0.45831 -2.02774,-0.673501 -2.93343,-0.43318 -4.76779,1.26513 -1.70175,1.57549 -2.50354,1.85624 -4.60296,1.61176 -1.24603,-0.14512 -1.47275,-0.0814 -2.68454,0.75406 -1.99525,1.3757 -2.82114,1.74086 -4.38973,1.9408 -2.36016,0.30086 -2.32468,0.24752 -2.21432,3.33111 0.0916,2.5604 0.15608,2.81955 1.27817,5.14053 0.99767,2.06362 4.2653,7.50287 5.52607,9.19864 0.35255,0.47419 0.50863,0.44688 4.05233,-0.70914 7.24315,-2.36286 16.0447,-4.23569 22.60335,-4.80962 0.94589,-0.0828 2.22681,-0.2137 2.8465,-0.29099 2.05634,-0.25643 11.52408,-0.3099 14.74829,-0.0833 25.72798,1.80838 49.00727,12.15893 67.17179,29.86631 9.54074,9.3006 16.41215,18.93517 22.1779,31.09603 5.28968,11.15671 8.68431,24.01771 9.67237,36.64479 0.336,4.29389 0.17349,15.42047 -0.28596,19.57916 -3.96346,35.87459 -25.12237,66.6105 -57.3288,83.27705 -13.72579,7.10301 -31.82814,11.56595 -46.30209,11.41532 -1.52797,-0.0159 -35.6989,-0.0763 -75.93542,-0.13428 -40.23651,-0.0579 -73.33588,-0.11779 -73.55416,-0.13298 -0.38296,-0.0267 30.34913,-2.66861 34.925,-3.00241 1.23692,-0.0902 2.66567,-0.2155 3.175,-0.27837 0.50932,-0.0629 1.87854,-0.18097 3.04271,-0.26249 1.16416,-0.0815 2.65244,-0.20185 3.30729,-0.26741 0.65484,-0.0656 1.96453,-0.18153 2.91041,-0.25771 7.26046,-0.58467 11.68668,-0.95088 12.7,-1.05071 1.38642,-0.13658 1.19063,-0.12028 16.0073,-1.33146 6.25739,-0.51152 11.91286,-0.98608 12.5677,-1.05461 0.65485,-0.0685 4.16719,-0.36803 7.80521,-0.66563 3.63802,-0.29758 6.85271,-0.56944 7.14375,-0.60415 0.31345,-0.0374 -1.10204,-0.888 -3.47231,-2.08659 C 45.80414,309.10385 30.88775,295.27362 20.55638,278.01398 12.21475,264.07838 7.01318,247.93959 5.78776,232.19167 5.47343,228.15211 5.56453,216.72513 5.94032,213.05877 8.19906,191.02078 16.88811,170.7593 31.18638,154.18898 c 3.58053,-4.14951 9.79226,-10.14262 13.95455,-13.46343 3.43416,-2.73992 8.74517,-6.41885 13.00451,-9.00825 l 2.0243,-1.23063 -0.96909,-1.7749 c -0.533,-0.97618 -1.73384,-3.41302 -2.66853,-5.4152 -1.9834,-4.24858 -1.64455,-4.13436 -5.04119,-1.69932 -7.80918,5.59838 -60.37802,46.0437 -73.95104,56.8963 -19.6677,15.72578 -32.88038,28.19789 -37.87897,35.75585 -1.74186,2.63376 -4.85124,8.80308 -4.85124,9.62541 0,0.11387 0.32742,0.37256 0.7276,0.57483 2.09497,1.05899 5.39697,3.47239 7.18619,5.25232 6.124,6.0923 9.01333,13.48571 8.68511,22.2241 -0.17261,4.59505 -0.97343,7.78672 -2.96085,11.80042 -1.71598,3.46559 -3.3488,5.68378 -6.14524,8.34837 -5.39429,5.13998 -12.0519,7.89305 -19.37025,8.01 l -2.86636,0.0458 2.44171,2.38125 c 2.66364,2.59768 4.0445,4.88386 4.29564,7.11205 0.1157,1.02642 0.0188,1.338 -0.7488,2.40681 -1.13575,1.58149 -3.35806,3.05535 -5.8253,3.86344 -1.70551,0.55859 -2.44706,0.64051 -5.79237,0.63982 -4.49193,0 -6.98381,-0.47863 -9.72439,-1.86423 -5.08288,-2.56984 -10.9587,-8.51392 -16.07222,-16.25893 -3.00672,-4.55404 -4.63293,-7.70962 -6.05811,-11.75563 -0.13428,-0.38121 -0.60672,0.44326 -1.86206,3.24962 -7.95779,17.78992 -21.15643,33.6854 -37.51866,45.18474 -14.86254,10.44538 -33.23627,17.29859 -51.39893,19.17129 -4.06893,0.41952 -12.64643,0.66984 -16.27188,0.4749 z m 16.53646,-27.47756 c 25.17881,-3.79058 46.79132,-18.23122 59.88786,-40.01476 2.05017,-3.41003 5.38837,-10.46001 6.7606,-14.27769 1.54578,-4.30051 2.97461,-9.68409 2.65184,-9.99164 -0.27805,-0.26496 -13.95264,-2.98111 -22.07218,-4.3842 -4.84462,-0.83717 -18.9081,-2.99612 -22.35729,-3.4322 -0.7276,-0.092 -5.00591,-0.69657 -9.50735,-1.3435 -4.50144,-0.64696 -8.26722,-1.17629 -8.3684,-1.17629 -0.1012,0 -0.33973,0.37592 -0.53004,0.8354 -0.71371,1.72307 -2.85374,4.64092 -4.49834,6.13336 -3.0122,2.73349 -8.00127,4.67291 -12.02087,4.67291 -1.8456,0 -5.13728,-0.66508 -6.87916,-1.38994 -4.99912,-2.08026 -9.17052,-6.83834 -10.61138,-12.10381 -0.74885,-2.73661 -0.63807,-7.22683 0.24495,-9.92746 2.14479,-6.55973 7.47389,-11.23963 14.10594,-12.38753 2.49357,-0.43158 5.62973,-0.29432 7.94517,0.34772 l 1.68646,0.46765 0.85505,-1.06847 c 0.96277,-1.20306 6.43641,-8.57702 11.52925,-15.53191 1.86481,-2.54662 5.92833,-8.32115 9.03009,-12.83229 8.58139,-12.48064 11.05887,-15.88056 15.28091,-20.9704 l 2.47084,-2.97871 -2.63557,-1.71029 c -8.78441,-5.70048 -20.18491,-10.12614 -30.58713,-11.87392 -7.93128,-1.3326 -17.5596,-1.49881 -25.65726,-0.44294 -15.07513,1.96572 -30.31704,8.72985 -42.20837,18.73142 -3.05509,2.56958 -8.3063,7.85497 -10.83992,10.91046 -7.70107,9.28733 -13.57305,20.92976 -16.54723,32.80834 -1.75123,6.99418 -2.35143,11.92604 -2.36667,19.44687 -0.0135,6.7119 0.17084,9.54469 0.9217,14.15521 3.57976,21.98076 15.76811,41.54816 34.10321,54.74986 5.14852,3.70708 13.32891,8.007 19.61168,10.30869 6.31928,2.31508 14.34203,4.14909 20.90917,4.77991 4.32562,0.41551 15.4608,0.12722 19.69244,-0.50985 z m -18.70247,-17.06628 c -0.0456,-0.0388 -1.03883,-0.1446 -2.20713,-0.23506 -3.0688,-0.23762 -7.70374,-1.11744 -11.46736,-2.17675 -14.35486,-4.04032 -26.95506,-12.84608 -35.9329,-25.11198 -4.23805,-5.79019 -7.91488,-13.37418 -10.00538,-20.6375 -4.51464,-15.68585 -2.93595,-33.40616 4.25842,-47.79925 10.66342,-21.33325 30.91471,-35.02856 54.69051,-36.98545 5.56913,-0.45839 6.0276,-0.33602 1.94392,0.51882 -12.33244,2.5816 -23.05455,8.33456 -31.78834,17.0561 -3.85752,3.8521 -6.13045,6.65541 -8.79615,10.84877 -10.36696,16.30807 -12.77456,35.89184 -6.66083,54.18061 7.44974,22.28537 26.89817,38.65454 50.38021,42.40352 4.11385,0.65681 11.9652,0.79412 16.48801,0.28843 4.23431,-0.47348 9.88621,-1.75771 14.07136,-3.19733 3.79582,-1.3057 10.08735,-4.43948 13.75834,-6.85295 l 3.04271,-2.00041 -2.21012,2.1186 c -9.16879,8.78911 -21.97651,14.91009 -35.6253,17.02578 -3.31944,0.51453 -13.51098,0.92106 -13.93997,0.55605 z M 118.564,303.5114 c 5.97884,-0.51194 14.34785,-2.33222 19.79348,-4.30517 11.55856,-4.18766 21.28462,-10.37502 29.96041,-19.05965 10.21006,-10.22052 17.32142,-22.5479 20.87475,-36.18585 1.16292,-4.46339 1.58605,-6.78172 2.28394,-12.51352 0.35385,-2.90621 0.44653,-12.04048 0.14763,-14.55209 -0.1039,-0.87312 -0.30723,-2.59953 -0.45188,-3.83645 -1.42637,-12.19944 -6.64069,-25.57101 -13.97259,-35.83126 -5.27368,-7.38002 -12.25846,-14.37939 -19.34512,-19.38554 -10.16341,-7.17963 -21.90226,-11.879 -34.66041,-13.87544 -3.25144,-0.50882 -4.90562,-0.60227 -10.84792,-0.61291 -7.56867,-0.0135 -9.92063,0.14071 -14.41979,0.94586 -3.63241,0.65006 -8.38944,1.79406 -8.7026,2.09288 -0.13594,0.12973 0.10139,0.76423 0.5601,1.49733 0.82751,1.32258 3.5674,6.14479 5.12,9.01126 0.49263,0.90951 1.03188,1.65365 1.19833,1.65365 0.16645,0 1.74273,-0.24458 3.50282,-0.54354 3.41704,-0.58033 9.83072,-1.04663 9.83072,-0.71469 0,0.10994 -0.19402,0.19989 -0.43116,0.19989 -1.40737,0 -11.37402,2.72114 -11.90255,3.2497 -0.0574,0.0574 0.84815,2.09034 2.0124,4.51752 5.57929,11.63145 11.1453,26.28447 14.28586,37.60883 0.60534,2.18281 1.18655,4.25225 1.29159,4.59872 0.1474,0.48636 0.55702,0.74237 1.7967,1.12294 0.88315,0.2711 2.51214,1.08464 3.61993,1.8078 5.94891,3.8835 7.94406,11.54885 4.74289,18.22217 -0.97626,2.03517 -3.95912,5.02287 -6.08637,6.09626 -5.66423,2.85806 -12.04606,1.87029 -16.46473,-2.54838 -6.36381,-6.36382 -5.40112,-16.68325 2.03356,-21.79844 0.62323,-0.42879 1.13313,-0.81754 1.13313,-0.86387 0,-0.0463 -0.59446,-1.82824 -1.32104,-3.95983 -4.3916,-12.88394 -8.2474,-21.06237 -16.06727,-34.0799 l -2.81112,-4.67958 -0.71363,0.36904 c -1.5072,0.77939 -6.33614,4.75782 -9.2297,7.6041 -10.42228,10.25192 -16.81252,23.24799 -18.56983,37.76626 -0.43744,3.61394 -0.44241,11.03072 -0.01,14.55208 1.74971,14.24078 8.18499,27.49053 18.19211,37.4563 13.99527,13.9374 33.40449,20.52238 52.94117,17.96134 9.43658,-1.23703 18.37552,-4.61123 26.98176,-10.18489 l 2.8625,-1.85383 -1.71979,1.623 c -10.80172,10.19384 -24.29272,16.39139 -39.15834,17.98873 -3.52224,0.37849 -11.152,0.29745 -14.81666,-0.15734 C 89.1013,288.31072 77.16755,283.11896 67.19126,274.75953 63.16382,271.38482 60.106,268.13775 56.80117,263.72637 49.24682,253.6426 45.33453,243.54785 43.68469,229.88243 43.3664,227.2461 43.5193,218.74901 43.94353,215.49865 c 1.37825,-10.56021 4.85527,-19.88264 10.6575,-28.57444 6.46859,-9.69008 14.48454,-16.89203 24.87382,-22.34806 l 3.24446,-1.70386 -3.60175,-5.26775 c -1.98093,-2.89727 -3.69435,-5.36639 -3.80759,-5.48693 -0.24453,-0.26038 -1.9857,0.59452 -5.35154,2.62755 -12.85322,7.76356 -23.82089,19.69974 -30.36446,33.0458 -5.93185,12.09844 -8.59666,24.04769 -8.31964,37.30625 0.25173,12.04984 2.74849,22.42254 8.02775,33.35096 12.31233,25.48753 37.11117,42.58594 65.37103,45.07231 3.0797,0.27096 10.67811,0.26598 13.89062,-0.009 z M -77.89061,273.04487 c 0,-0.17746 -0.12192,-0.75629 -0.26911,-1.28625 -0.2236,-0.80497 -0.41338,-0.99094 -1.15287,-1.12966 -0.87106,-0.16341 -5.72029,-2.40292 -5.72029,-2.64179 0,-0.0673 0.75763,0.0942 1.6836,0.35907 0.92598,0.26479 2.35473,0.55986 3.175,0.65566 1.32479,0.15476 1.49095,0.12105 1.48735,-0.3017 -0.007,-0.86178 -0.39806,-1.12652 -2.42924,-1.646 -2.23759,-0.5723 -4.44188,-1.61486 -6.43009,-3.04126 -0.72753,-0.52194 -1.36176,-0.83195 -1.40944,-0.68892 -0.12687,0.38061 0.66887,4.08684 1.32818,6.18617 0.53015,1.68802 0.64723,1.84817 1.6727,2.28775 2.43424,1.04344 8.06728,1.91444 8.06421,1.24693 z m 12.4691,-3.59162 c 2.10039,-1.38207 4.8715,-4.1225 6.32621,-6.25604 1.89256,-2.7758 3.69575,-8.07691 3.69575,-10.86506 0,-0.77171 -0.084,-0.93327 -0.41851,-0.80492 -0.23019,0.0883 -0.52324,0.1606 -0.65125,0.1606 -0.12803,0 -0.36679,0.50602 -0.53062,1.12448 -0.2825,1.06651 -2.89864,6.37093 -3.06173,6.20787 -0.0423,-0.0423 0.0933,-0.57116 0.30141,-1.1752 0.50011,-1.45153 1.30802,-5.59388 1.12644,-5.77546 -0.0786,-0.0786 -0.45458,-0.0646 -0.83556,0.031 -0.45749,0.11483 -0.69268,0.35301 -0.69268,0.70147 0,1.12376 -1.64859,5.36972 -2.73603,7.04672 -1.8271,2.81766 -2.07748,2.78228 -1.08312,-0.15306 0.84037,-2.4807 1.42624,-6.77661 0.96015,-7.04043 -0.10105,-0.0572 -0.65546,0.0317 -1.23204,0.19759 -0.91641,0.26363 -1.08892,0.44175 -1.37075,1.41513 -0.60561,2.09174 -2.00284,4.30927 -3.67565,5.83358 l -1.62837,1.48381 0.7244,1.5997 c 0.6735,1.48736 1.86544,5.14617 2.22345,6.82522 0.0853,0.40018 0.25665,0.7276 0.38071,0.7276 0.12409,0 1.10408,-0.57806 2.17779,-1.28458 z m -13.94929,-4.4701 c -0.0145,-0.18191 -0.0443,-0.61487 -0.0661,-0.96216 -0.0337,-0.53637 -0.21823,-0.65818 -1.22582,-0.80928 -1.70905,-0.25628 -4.57025,-1.77964 -6.00167,-3.1954 l -1.23468,-1.22116 -0.81584,0.42188 c -0.85165,0.4404 -0.9179,0.68146 -0.6436,2.34143 0.14912,0.90244 0.32205,1.08564 1.66457,1.76331 3.01117,1.52006 8.3979,2.59528 8.32318,1.66138 z m 21.53111,-23.74094 c 0.91395,-0.34255 -2.9069,-5.61432 -5.74384,-7.92495 -1.4944,-1.21719 -3.89904,-2.7813 -4.2917,-2.79157 -0.0949,-0.003 -0.29464,0.3457 -0.44384,0.77375 -0.2594,0.74406 -0.19608,0.84428 1.44087,2.28147 1.76088,1.54596 2.14341,2.26854 0.58197,1.09924 -0.97165,-0.7276 -2.59818,-1.60025 -2.73243,-1.46598 -0.0474,0.0474 -0.16417,0.39683 -0.25945,0.77645 -0.15145,0.60341 -0.008,0.81153 1.13956,1.65396 1.4437,1.05977 4.34753,4.05712 4.84034,4.99626 0.29657,0.56515 0.28684,0.57439 -0.18878,0.17891 -2.44337,-2.03173 -3.35769,-2.71637 -4.71929,-3.53393 -0.86455,-0.51909 -1.6537,-0.94382 -1.75366,-0.94382 -0.1,0 -0.45392,0.72776 -0.78658,1.61726 l -0.60481,1.61724 1.03558,0.88636 c 0.56957,0.48749 1.1104,0.89082 1.20184,0.8963 0.0914,0.006 0.66323,0.65408 1.27061,1.44137 l 1.10437,1.43145 4.28562,-1.43153 c 2.35712,-0.78735 4.43772,-1.48857 4.62362,-1.55824 z m -157.02132,-0.3054 c 2.83937,-0.41916 6.67506,-2.69992 8.41986,-5.00658 l 0.58912,-0.77886 -0.77531,0.70985 c -2.99813,2.74487 -7.63632,4.10168 -11.65161,3.40837 -8.17351,-1.41129 -13.43224,-9.90968 -10.97998,-17.74426 1.52318,-4.86629 5.95797,-8.78353 10.87605,-9.60678 0.45082,-0.0755 0.3366,-0.12221 -0.3587,-0.14677 -2.90377,-0.10257 -6.67758,1.64119 -9.30664,4.30028 -3.65821,3.70004 -5.05624,8.28863 -4.08898,13.4208 0.71996,3.81998 3.86729,8.02643 7.36206,9.83951 3.56119,1.84754 5.80615,2.21086 9.91413,1.60444 z m 125.13178,-2.75844 c 0.82621,-0.89297 0.95464,-2.31074 0.43476,-4.79992 -0.32959,-1.5781 -0.50001,-1.86197 -0.9506,-1.5835 -0.29056,0.17957 -3.51507,6.57471 -3.51782,6.97688 -0.003,0.26516 1.31384,0.43368 2.38001,0.30482 0.59023,-0.0713 1.18988,-0.39708 1.65365,-0.89828 z m -6.79612,-6.53273 c 1.119,-3.45612 2.36482,-7.33176 2.76847,-8.61255 l 0.73393,-2.32871 -2.85816,-8.51921 c -2.36453,-7.04789 -4.19558,-12.21811 -5.44484,-15.37414 -0.1524,-0.38497 -1.21994,1.53183 -4.4944,8.06979 -3.80328,7.59388 -4.28252,8.69577 -4.18949,9.63305 0.0578,0.58209 0.21556,2.54662 0.35063,4.36563 0.18309,2.46533 0.42751,3.81246 0.96012,5.29167 0.90659,2.51793 2.80694,6.32052 4.09898,8.20208 1.39707,2.03457 5.10566,5.55625 5.85112,5.55625 0.10398,0 1.10464,-2.82774 2.22364,-6.28386 z m -41.95336,0.22424 c 0,-1.02235 0.89968,-3.53682 1.60856,-4.49562 0.57607,-0.77919 0.58592,-0.91289 0.42404,-5.77069 -0.51787,-15.54128 -5.21112,-30.18719 -13.79881,-43.06097 -3.6526,-5.4756 -8.66754,-11.42894 -12.54832,-14.89638 l -1.74693,-1.56086 -6.08542,7.55433 c -16.88531,20.96117 -25.00384,31.10191 -29.63624,37.01825 l -5.09689,6.50957 1.14221,1.40219 c 2.17342,2.66809 3.55928,5.64706 3.95055,8.49191 0.10776,0.78367 0.32483,1.37414 0.50511,1.37414 0.9451,0 10.4774,0.87331 14.58318,1.33607 7.43847,0.83833 14.25995,1.85949 36.77708,5.50545 5.23875,0.84825 9.6143,1.49436 9.72344,1.43581 0.10914,-0.0585 0.19844,-0.43799 0.19844,-0.8432 z m 30.67237,-33.09871 c 1.4868,-4.58391 2.83488,-8.71363 2.99575,-9.17716 0.32774,-0.9444 0.36851,-0.82968 -3.13381,-8.81451 -9.25822,-21.10748 -17.44765,-34.65425 -25.88233,-42.81403 -3.10624,-3.00501 -4.83389,-3.9378 -6.47496,-3.49589 -1.37055,0.36904 -3.14079,1.78906 -5.50977,4.41968 l -1.90878,2.11961 3.4081,3.21601 c 10.21508,9.63927 18.99229,21.81971 24.62535,34.17337 3.84223,8.42632 6.45062,16.53111 8.10726,25.19095 0.40949,2.14061 0.81775,3.80749 0.90723,3.70417 0.0895,-0.1033 1.37919,-3.9383 2.86596,-8.5222 z m 45.67357,-9.46447 c 2.02978,-1.71294 8.8102,-7.32996 15.0676,-12.48227 23.31453,-19.19703 41.33487,-34.19277 55.99083,-46.59305 5.73077,-4.84878 12.19901,-10.31209 14.37386,-12.14067 6.7981,-5.7158 12.13739,-10.48261 13.39514,-11.95888 1.65952,-1.94786 3.77833,-5.15546 4.30597,-6.518619 0.62058,-1.60327 0.54332,-3.401378 -0.25498,-5.934128 C 39.49552,89.712767 38.2126,87.88402 36.04641,86.980468 34.94127,86.519484 29.50337,86.074111 24.8608,86.064321 l -2.68652,-0.0056 -3.2666,1.944211 c -1.79663,1.069314 -11.54144,6.677422 -21.65514,12.462488 -19.75938,11.30239 -28.35871,16.34939 -28.75865,16.87867 -0.13814,0.18277 -0.65117,1.28484 -1.14004,2.44901 -8.59173,20.45933 -21.03831,45.72368 -32.71731,66.41042 l -2.98752,5.29167 0.98563,0.45609 c 0.54207,0.25085 1.1108,0.45921 1.26383,0.46302 0.15301,0.004 1.93895,-1.39457 3.96875,-3.10753 z m -37.39139,-59.05979 c 0.93723,-0.28946 2.22969,-0.90657 2.87213,-1.37134 0.96933,-0.7012 14.00019,-12.81059 20.01941,-18.60375 l 1.6534,-1.59128 -2.74761,-8.995839 C -79.238,94.736993 -80.7969,89.633974 -81.19105,88.344686 l -0.7166,-2.344209 -9.83083,0.165312 c -16.64123,0.279797 -19.27056,0.511545 -21.38172,1.884389 -1.33837,0.870347 -1.65436,1.973739 -1.46992,5.132705 0.17629,3.019002 0.0257,2.340372 4.74848,21.390927 2.86522,11.55748 3.84135,15.12126 4.1131,15.01698 0.19595,-0.0752 0.79312,0.16008 1.32699,0.52285 1.20198,0.81679 2.54559,0.85349 4.87739,0.13327 z M 71.23853,99.857077 c 0.60209,-0.436139 1.97488,-2.116534 3.25856,-3.988726 2.80088,-4.084929 4.00679,-5.020628 7.70257,-5.976541 0.93716,-0.242384 1.7544,-0.490484 1.81608,-0.551338 0.0617,-0.06085 -0.90435,-1.151573 -2.14673,-2.423822 -1.24237,-1.272275 -2.49978,-2.789449 -2.79423,-3.371532 -0.29446,-0.582084 -1.39722,-3.439584 -2.4506,-6.350001 -1.05339,-2.910416 -2.38445,-6.482291 -2.95791,-7.9375 -1.48185,-3.760285 -4.4567,-9.657292 -4.8718,-9.657292 -0.49906,0 -11.55023,3.284856 -13.88713,4.127844 -2.38001,0.858494 -3.15064,1.3403 -3.15064,1.969744 0,0.264239 1.37388,4.209389 3.05306,8.766969 5.96566,16.191786 8.04976,20.873191 10.53256,23.65883 2.38146,2.671948 3.95996,3.135978 5.89621,1.733365 z M -56.73709,90.653228 c 1.95651,-2.163207 3.79462,-4.202774 4.08471,-4.532365 l 0.52745,-0.599229 -6.79667,0.02196 c -4.71538,0.01535 -6.7967,0.110305 -6.7967,0.310383 0,0.226906 1.26955,5.751671 2.53982,11.052598 0.18031,0.752528 -0.43741,1.352233 6.44139,-6.253347 z m 12.55887,-14.979465 c 0.0777,-0.618463 0.21092,-2.196041 0.29609,-3.505729 0.0851,-1.309688 0.19894,-2.559844 0.25286,-2.778125 0.0539,-0.218281 0.17357,-1.230313 0.26583,-2.248958 0.23924,-2.641362 1.62097,-12.116197 2.10598,-14.440985 0.22526,-1.079765 0.40965,-1.982391 0.40979,-2.005886 1e-4,-0.02355 -1.38293,-0.775414 -3.07343,-1.671002 -7.39558,-3.917897 -14.55944,-8.980514 -25.76595,-18.20844 -2.11005,-1.737519 -3.85857,-3.142775 -3.88561,-3.122772 -0.0271,0.01984 0.54877,1.7009 1.2796,3.735414 0.73083,2.034488 3.29475,10.307056 5.69759,18.383462 5.75241,19.335062 5.62263,18.890642 5.54048,18.972795 -0.11938,0.11938 -3.50382,-4.464447 -4.33845,-5.87592 -0.79544,-1.345221 -3.91835,-6.428713 -6.74534,-10.980208 l -1.56123,-2.513542 0.18508,1.431634 c 0.19515,1.509474 2.0679,10.295573 4.24717,19.925718 l 1.3005,5.746962 3.43959,0.08226 c 1.89177,0.04524 7.21251,0.108241 11.82388,0.140017 l 8.38433,0.05779 z m -40.85466,0.391081 c 0,-0.535543 -12.39081,-40.688604 -16.22568,-52.580144 l -1.19454,-3.704167 -3.79145,0.02249 -3.79146,0.02249 -4.6302,1.988318 c -7.78725,3.344042 -6.86031,3.148515 -16.27188,3.432572 -4.51115,0.136128 -8.46997,0.303715 -8.7974,0.372348 -1.24055,0.260112 -0.57427,3.018552 1.10239,4.564036 1.90196,1.753182 3.5297,2.368947 6.38768,2.41644 1.41798,0.02355 1.63896,0.418465 2.37617,4.246774 0.82841,4.302046 2.35706,11.230928 3.81328,17.284568 0.58904,2.448771 1.07101,4.724215 1.07101,5.056558 0,0.495935 0.11435,0.582374 0.63804,0.482282 0.43645,-0.08345 0.72054,0.03265 0.89918,0.367401 0.14365,0.269187 1.04805,3.382195 2.00975,6.917822 0.96174,3.535627 1.93339,6.710468 2.15924,7.055168 1.06521,1.625732 3.94542,1.976543 17.8417,2.173155 6.03912,0.08543 11.03617,0.205608 11.10457,0.267044 0.0684,0.06146 1.28878,0.08266 2.71197,0.04712 2.00187,-0.05001 2.58763,-0.147876 2.58763,-0.432435 z M 36.50707,75.344198 c 2.30826,-0.48678 3.94089,-1.434465 4.49959,-2.611808 0.2372,-0.499904 0.43129,-0.968375 0.43129,-1.041056 0,-0.07265 -0.81126,-1.423881 -1.80279,-3.002703 -0.99155,-1.578822 -2.70126,-4.358878 -3.79939,-6.177889 -1.0981,-1.81901 -3.69728,-6.10526 -5.77596,-9.525 C 21.30602,38.584366 8.18758,16.649983 6.64014,13.827408 5.72264,12.153918 4.8937,10.403171 4.79806,9.9368424 4.57517,8.8503844 5.21237,6.3518704 6.21646,4.3752484 7.29829,2.2455904 13.70822,-7.6673686 17.78653,-13.517862 l 2.00158,-2.871338 -6.04227,0.157586 c -3.32324,0.08668 -9.54601,0.229632 -13.82839,0.317685 -4.28236,0.08805 -8.03283,0.197353 -8.33438,0.242888 -0.30152,0.04551 -1.14355,0.161158 -1.87116,0.25699 -2.32672,0.306414 -10.18646,2.353574 -10.18646,2.653162 0,0.05067 2.11336,2.63189 4.69636,5.7360614 8.84624,10.63117 16.7123,20.7356076 20.35244,26.1439026 1.02843,1.527969 3.74552,5.695156 6.03795,9.260417 2.29245,3.565261 4.4391,6.899011 4.77033,7.408334 0.33123,0.509322 1.78467,2.831041 3.22982,5.159375 9.06994,14.612593 10.68885,18.400368 10.68649,25.003125 -0.003,3.805449 -0.37642,5.589032 -1.74609,8.303366 l -0.91892,1.821074 4.02862,-0.173805 c 2.21576,-0.09559 4.84582,-0.346128 5.84462,-0.556763 z M -24.17871,62.935981 c 2.11005,-1.063731 4.81618,-2.331324 6.01363,-2.816887 1.19743,-0.485563 2.14471,-0.9153 2.10503,-0.954961 -0.0397,-0.03966 -1.73376,-0.501306 -3.76465,-1.025816 -2.03092,-0.524536 -5.34265,-1.492567 -7.35944,-2.151142 -2.01679,-0.6586 -3.756,-1.097333 -3.8649,-0.974963 -0.10891,0.12237 -0.40098,2.484676 -0.64905,5.249572 -0.2481,2.764896 -0.51872,5.475473 -0.60137,6.023478 l -0.15031,0.996394 2.21728,-1.205786 c 1.21952,-0.663204 3.94372,-2.076132 6.05378,-3.139889 z m 62.68778,-2.606305 c -0.36722,-1.280372 -0.29744,-3.184181 0.13957,-3.808095 0.21211,-0.302842 1.01579,-0.827537 1.78594,-1.165966 1.49103,-0.655214 1.6247,-0.662279 8.14712,-0.430133 5.01473,0.178488 4.87556,0.339725 2.70119,-3.130365 C 50.27988,50.194388 47.4926,45.729544 45.08894,41.873242 35.03091,25.736569 31.93177,21.338955 23.75434,11.599802 22.66452,10.301862 21.94102,9.3063144 22.14655,9.3874624 c 0.20553,0.08117 1.49325,0.6624096 2.8616,1.2916686 l 2.4879,1.144085 3.53669,-3.6942446 c 1.94519,-2.031841 4.32483,-4.559724 5.28807,-5.617501 L 38.07216,0.58824044 35.03067,-5.4260296 c -1.67283,-3.307848 -3.30975,-6.6968164 -3.63762,-7.5310214 l -0.59613,-1.516724 -3.47689,2.821384 C 14.06239,-0.89419356 10.4817,3.7123084 10.4817,10.009841 c 0,1.711087 0.4829,2.743835 5.49638,11.755067 5.36339,9.640174 22.50321,39.422917 22.68768,39.422917 0.0492,0 -0.0214,-0.386159 -0.15669,-0.858149 z m 23.29286,-6.977565 c 1.81411,-0.361448 3.35531,-0.714137 3.42492,-0.783749 0.13669,-0.136657 -0.21891,-0.863918 -3.28898,-6.72637 C 60.83289,43.73194 58.43095,39.088503 56.60025,35.523242 54.76954,31.957982 53.06557,28.683762 52.81364,28.2472 52.5617,27.810637 50.83442,24.476887 48.97525,20.838867 46.32121,15.645492 41.67484,6.9505174 41.29825,6.4724944 41.1907,6.3359694 36.0867,9.3424294 34.41258,10.528424 c -2.57543,1.82454 -2.55654,1.703203 -0.58952,3.788357 1.98178,2.100792 4.37094,5.184088 6.16019,7.950015 2.50722,3.875749 6.05811,12.13366 11.62703,27.039703 l 2.03574,5.448882 2.42876,-0.373036 c 1.33586,-0.205158 3.91306,-0.668761 5.72715,-1.030234 z m 13.393,-37.811526 C 69.27927,4.6927214 66.48196,-4.9955796 66.7172,-13.821551 c 0.1942,-7.286387 1.60001,-11.348085 5.91278,-17.083352 3.77655,-5.022189 7.4323,-8.73006 19.48545,-19.763291 4.82351,-4.41534 5.48753,-5.365644 7.07779,-10.12929 1.9635,-5.88161 2.90808,-11.65116 2.94359,-17.97928 0.0269,-4.78786 -0.05,-4.99368 -2.82302,-7.56104 -5.91778,-5.47882 -16.20602,-5.89727 -26.25813,-1.06799 -3.41302,1.6397 -5.12122,2.70382 -7.95411,4.95504 l -2.07386,1.64801 2.86091,-3.28649 c 1.57351,-1.80757 4.28382,-4.92359 6.02298,-6.92451 1.73913,-2.00091 3.05734,-3.63802 2.92936,-3.63802 -0.38179,0 -7.42233,4.17793 -9.97953,5.92195 -3.65837,2.49501 -5.47822,4.33643 -6.91549,6.99749 -2.47087,4.57466 -4.46411,7.84035 -4.54118,7.44019 -0.10258,-0.53273 1.50511,-7.52343 2.57434,-11.19392 1.3225,-4.53982 2.85502,-8.64969 4.37635,-11.73635 0.77348,-1.56932 1.37929,-2.881476 1.34622,-2.915906 -0.033,-0.0344 -7.49316,0.290006 -16.57802,0.720986 -9.0849,0.43097 -18.18484,0.84964 -20.22213,0.93036 -2.0373,0.0807 -4.29948,0.20038 -5.02709,0.2659 -0.7276,0.0655 -3.28745,0.19529 -5.68854,0.28839 -2.40109,0.0931 -5.70508,0.24523 -7.34219,0.33806 -1.63711,0.0928 -2.97656,0.0988 -2.97656,0.0132 0,-0.0856 1.45852,-0.6461 3.24115,-1.24561 11.08181,-3.726886 28.14844,-7.327726 44.11927,-9.308596 10.22427,-1.26811 13.20257,-1.46072 22.62187,-1.46299 9.09736,-0.002 11.76727,0.20482 15.875,1.23081 2.86634,0.71592 8.16809,2.92451 10.76048,4.48259 3.83272,2.30353 4.52067,3.068 9.62326,10.693736 2.58667,3.86571 4.7896,6.93428 4.89535,6.81904 0.63937,-0.6966 2.7663,-4.7997 3.34558,-6.45396 0.63328,-1.80845 0.69114,-2.35087 0.75935,-7.11703 0.0747,-5.219816 1.14451,-14.819636 2.12296,-19.049996 0.51121,-2.21022 1.55864,-4.49791 2.05939,-4.49791 1.41835,0 7.82008,2.80043 10.7125,4.6862 1.51527,0.98788 6.72169,6.0294 10.46184,10.13046 l 2.05105,2.24896 -2.05515,-3.04271 c -2.92619,-4.33225 -6.91531,-9.62073 -8.84357,-11.72419 -1.25219,-1.36593 -2.15397,-2.05459 -3.72456,-2.84427 -1.1398,-0.57307 -2.29466,-1.04195 -2.56638,-1.04195 -0.56304,0 -1.36586,0.78294 -1.37785,1.34375 -0.006,0.27158 -0.0829,0.24757 -0.27741,-0.0864 -0.42828,-0.73526 -0.62979,-4.76927 -0.27168,-5.43841 0.81172,-1.5167 3.79312,-1.87055 6.25687,-0.74261 2.43176,1.11329 10.20897,9.10152 16.35424,16.79792 4.88595,6.11924 6.326,8.53363 12.22396,20.494756 l 4.07892,8.27206 2.90325,1.92323 c 1.59679,1.05778 3.85903,2.32031 5.02719,2.80563 1.94987,0.81008 3.64781,1.98615 7.52113,5.20949 l 1.02404,0.8522 1.13591,-1.20224 c 1.63335,-1.72872 2.27925,-3.95252 2.22136,-7.64789 -0.12015,-7.67085 -2.66343,-16.80062 -6.44578,-23.138806 -2.03859,-3.41613 -3.90382,-5.68691 -8.37298,-10.19341 -6.71494,-6.77103 -13.13489,-12.13429 -18.10327,-15.12359 -1.47785,-0.88918 -6.7374,-3.21916 -6.89988,-3.05666 -0.04,0.04 1.71209,1.97649 3.8935,4.3034 5.08961,5.42912 9.16276,10.26871 10.1151,12.01848 1.27334,2.33955 0.9542,5.1517 -0.53078,4.67685 -0.27088,-0.0866 -1.74267,-1.29376 -3.27064,-2.68253 -1.52797,-1.38876 -4.14735,-3.5523 -5.82084,-4.80786 -1.67349,-1.25555 -3.93567,-3.01928 -5.02708,-3.9194 -4.27725,-3.52761 -6.5306,-4.92587 -9.59115,-5.95162 -0.98226,-0.32921 -1.78445,-0.67179 -1.78265,-0.76129 0.0172,-0.84548 1.42986,-5.00846 1.85232,-5.45814 0.58105,-0.61849 2.13646,-1.18688 3.24794,-1.18688 0.85702,0 9.68997,1.96629 12.04257,2.68078 2.43316,0.73895 7.64497,3.29417 11.22712,5.50435 8.44047,5.20779 18.56075,15.33583 21.82833,21.84508 2.36765,4.71649 4.44259,13.763346 4.97732,21.701336 0.26956,4.00157 -0.62407,8.47028 -2.618,13.09137 -1.02751,2.38134 -3.6708,6.46691 -4.56163,7.0506 -0.35168,0.23044 -1.93961,0.61355 -3.52872,0.85137 l -2.88928,0.4324 -1.37977,1.85208 c -2.27799,3.057719 -3.90689,4.817167 -5.11559,5.525509 -1.49662,0.877068 -1.84936,1.480371 -2.26118,3.867203 -0.50385,2.920286 -1.52305,5.94876 -2.32124,6.89737 -0.65138,0.774092 -0.7977,0.82513 -2.06431,0.72009 -0.97449,-0.0808 -1.79811,-0.385048 -2.88809,-1.066826 -1.50373,-0.940594 -1.54127,-0.948822 -2.71571,-0.595366 -0.655,0.197115 -1.66751,0.694003 -2.25004,1.10416 -1.90077,1.338368 -2.70222,1.696852 -3.58584,1.60393 -0.69268,-0.07284 -0.8599,0.0048 -0.8599,0.398754 0,0.73697 -0.6966,1.935559 -1.48561,2.556192 -0.5271,0.414629 -1.08164,0.55253 -2.22184,0.55253 -1.71743,0 -1.87992,0.124169 -2.90713,2.221389 -0.95052,1.940613 -2.06682,2.616676 -4.10105,2.48367 -1.29103,-0.0844 -2.74865,-0.60161 -7.8052,-2.769526 -10.2679,-4.402164 -15.20114,-6.107166 -19.41505,-6.710019 -2.12198,-0.303583 -2.30481,-0.211296 -3.08771,1.558634 -1.07667,2.433955 -1.78287,2.656417 -6.47809,2.040678 -3.5442,-0.464793 -5.62142,-0.521943 -6.52224,-0.179414 -0.3369,0.128085 -2.69613,2.341166 -5.24275,4.917943 -2.54661,2.576751 -5.16599,4.988243 -5.82083,5.358871 -3.86583,2.18784 -6.12963,3.626988 -7.4767,4.753081 -3.04845,2.548414 -5.03121,5.604351 -5.8905,9.07886 -0.59457,2.404216 -0.81322,9.7667234 -0.40217,13.5433334 0.66702,6.128147 2.37723,13.884831 4.48903,20.3600576 0.58227,1.785329 1.02656,3.278161 0.98732,3.317399 -0.0392,0.03926 -0.88112,-1.413563 -1.87084,-3.228446 z m 65.63963,-53.694119 c 0.3161,-0.09051 1.00071,-0.636085 1.52135,-1.212374 0.78619,-0.870214 0.94663,-1.246822 0.94663,-2.22205 0,-0.645822 0.10792,-1.240949 0.23984,-1.322467 0.13193,-0.08154 1.1461,-0.0074 2.2537,0.164835 2.46047,0.382535 2.68594,0.233813 2.61728,-1.726247 l -0.0485,-1.385649 1.92357,0.01058 c 1.69037,0.0093 2.08122,-0.08668 3.22355,-0.792163 0.71499,-0.441563 1.8655,-1.016952 2.55673,-1.278652 1.21372,-0.459528 1.25767,-0.513582 1.28315,-1.578424 0.0369,-1.542336 0.32078,-2.408688 0.82087,-2.504996 0.28561,-0.05501 0.48193,0.167217 0.59253,0.670745 0.27525,1.253199 1.07503,2.314787 2.41014,3.19913 1.34805,0.892916 2.25438,1.057778 2.72143,0.495009 0.25397,-0.306017 1.62591,-6.183048 1.62938,-6.979814 0,-0.172217 -0.32607,-0.350811 -0.72625,-0.396875 -0.91623,-0.10541 -1.03918,-0.868945 -0.58865,-3.655589 0.17643,-1.091399 0.30446,-3.331459 0.28448,-4.977889 -0.0301,-2.48092 0.0551,-3.20025 0.49774,-4.20082 0.66233,-1.49731 0.66635,-1.9601 0.0279,-3.21148 -0.58394,-1.14461 -5.8084,-6.0222 -6.09537,-5.69067 -0.10544,0.12182 -0.57801,1.58736 -1.05018,3.25676 -1.11464,3.94103 -1.84243,5.69964 -3.56175,8.60639 -0.77467,1.30969 -2.51811,4.46485 -3.87432,7.011459 -3.72155,6.988122 -5.31934,9.26375 -9.35826,13.328465 -3.85008,3.874664 -4.4991,4.874075 -3.72242,5.732277 0.50866,0.562081 1.84968,1.049285 2.50381,0.909691 0.21828,-0.04659 0.6555,-0.15875 0.9716,-0.249291 z m 35.88972,-30.86264 c 0.15534,-0.59405 -2.06981,-2.74717 -5.4982,-5.32022 -3.57727,-2.68478 -4.83595,-3.26446 -6.82985,-3.14548 -0.3225,0.0192 1.1244,1.81418 4.61389,5.7237 l 5.08373,5.69567 1.25132,-1.23251 c 0.68823,-0.67788 1.30884,-1.45241 1.37911,-1.72116 z m -35.78095,-15.05064 c 1.66896,-2.45402 4.71173,-4.20784 6.68083,-3.85077 0.6971,0.12641 0.63786,0.065 -0.35287,-0.36593 -0.65484,-0.28482 -1.43949,-0.5245 -1.74368,-0.53263 -0.92874,-0.0248 -3.71317,1.53085 -4.70504,2.62873 -1.80924,2.0026 -2.45499,3.90471 -2.14344,6.31364 l 0.19323,1.49389 0.58346,-2.17884 c 0.34742,-1.29731 0.94924,-2.71664 1.48751,-3.50809 z"
       id="path302" /></g></svg>
